<svg xmlns="http://www.w3.org/2000/svg" viewBox="0 0 910.02 673.26"><defs><style>.cls-1{isolation:isolate;}.cls-2,.cls-21,.cls-41{fill:#a8c4e5;}.cls-2{opacity:0.4;}.cls-2,.cls-41{mix-blend-mode:multiply;}.cls-3{fill:#ffc2b0;}.cls-4{fill:#d88d2b;}.cls-5{fill:#dd4078;}.cls-6{fill:#d8e3f0;}.cls-7{fill:#dea749;}.cls-8{fill:#ebd265;}.cls-15,.cls-32,.cls-9{fill:none;}.cls-15,.cls-9{stroke:#baced8;stroke-miterlimit:10;}.cls-9{stroke-width:1.36px;}.cls-10{fill:#4c73db;}.cls-11{fill:#69f;}.cls-12{fill:#527beb;}.cls-13{fill:#4265c2;}.cls-14{fill:#6271f0;}.cls-15{stroke-width:1.38px;}.cls-16,.cls-27,.cls-49{fill:#fff;}.cls-17{fill:#97cbff;}.cls-18{fill:#ce3a77;}.cls-19{fill:#eb6092;}.cls-20{fill:#8db0da;}.cls-22{fill:#2c4482;}.cls-23{fill:#e1eaf4;}.cls-24{fill:#bbd6f2;}.cls-25{fill:#5366c4;}.cls-26{fill:#4367c7;}.cls-27{opacity:0.51;}.cls-28{fill:#21275e;}.cls-29{fill:#ea8a6c;}.cls-30{fill:#fcfeff;}.cls-31{fill:#d0e7f4;}.cls-32{stroke:#fff;stroke-linecap:round;stroke-linejoin:round;stroke-width:7px;}.cls-33{fill:#685b80;}.cls-34{fill:#45446c;}.cls-35{fill:#dbedff;}.cls-36{fill:#8787cc;}.cls-37{fill:#9687ae;}.cls-38{fill:#715255;}.cls-39{fill:#ab9ac7;}.cls-40{fill:#3f5da0;}.cls-42{fill:#ef487c;}.cls-43{fill:#88bdeb;}.cls-44{fill:#514677;}.cls-45{fill:#423a66;}.cls-46{fill:#bc4073;}.cls-47{fill:#dbefff;}.cls-48{fill:#283d75;}.cls-49{opacity:0.46;}.cls-50{fill:#513554;}.cls-51{fill:#715154;}.cls-52{fill:#dcefff;}</style></defs><title>plario</title><g class="cls-1"><g id="image"><path class="cls-2" d="M749.21,538.39,449,365c-3.48-2-3-5.54,1-7.86l143.88-83.06c4-2.32,10.14-2.58,13.61-.57L907.68,446.89c3.47,2,3,5.55-1,7.87L762.82,537.82C758.81,540.14,752.68,540.39,749.21,538.39Z"/><polygon class="cls-3" points="473.2 115.84 475.24 141.13 457.9 139.3 459.02 115.22 473.2 115.84"/><path class="cls-4" d="M300.39,402.69,163.76,323.81a2.53,2.53,0,0,1,0-4.38L351.07,211.29a2.54,2.54,0,0,1,2.53,0l136.63,78.88a2.53,2.53,0,0,1,0,4.38L302.92,402.69A2.54,2.54,0,0,1,300.39,402.69Z"/><rect class="cls-4" x="162.5" y="316.52" width="5.52" height="5.52"/><rect class="cls-5" x="486.07" y="285.84" width="5" height="5"/><path class="cls-4" d="M300.39,398.06,163.76,319.17a2.52,2.52,0,0,1,0-4.37L351.07,206.66a2.54,2.54,0,0,1,2.53,0l136.63,78.88a2.52,2.52,0,0,1,0,4.37L302.92,398.06A2.54,2.54,0,0,1,300.39,398.06Z"/><polygon class="cls-6" points="294.07 395.41 175.07 326.45 175.07 284.63 294.07 353.59 294.07 395.41"/><path class="cls-4" d="M300.39,365.69,163.76,286.81a2.53,2.53,0,0,1,0-4.38L351.07,174.29a2.54,2.54,0,0,1,2.53,0l136.63,78.88a2.53,2.53,0,0,1,0,4.38L302.92,365.69A2.54,2.54,0,0,1,300.39,365.69Z"/><rect class="cls-7" x="162.5" y="279.7" width="5.52" height="4.91"/><rect class="cls-7" x="485.96" y="251.46" width="5.52" height="3.68"/><path class="cls-7" d="M300.39,361.06,163.76,282.17a2.52,2.52,0,0,1,0-4.37L351.07,169.66a2.49,2.49,0,0,1,2.53,0l136.63,78.88a2.52,2.52,0,0,1,0,4.37L302.92,361.06A2.54,2.54,0,0,1,300.39,361.06Z"/><polygon class="cls-8" points="303.07 403.03 491.07 292.57 491.07 255.57 303.07 361.21 303.07 403.03"/><line class="cls-9" x1="174.24" y1="311.45" x2="290.03" y2="377.65"/><line class="cls-9" x1="174.24" y1="299.25" x2="290.03" y2="365.45"/><line class="cls-9" x1="174.24" y1="319.58" x2="290.03" y2="385.78"/><path class="cls-10" d="M191.1,557.85,327.73,479a2.53,2.53,0,0,0,0-4.38L140.42,366.45a2.54,2.54,0,0,0-2.53,0L1.26,445.33a2.53,2.53,0,0,0,0,4.38L188.57,557.85A2.54,2.54,0,0,0,191.1,557.85Z"/><rect class="cls-4" x="323.47" y="471.68" width="5.52" height="5.52" transform="translate(652.46 948.89) rotate(180)"/><rect class="cls-5" x="1.07" y="440.84" width="5" height="6" transform="translate(7.14 887.67) rotate(180)"/><path class="cls-10" d="M191.1,553.22l136.63-78.88a2.53,2.53,0,0,0,0-4.38L140.42,361.82a2.54,2.54,0,0,0-2.53,0L1.26,440.7a2.53,2.53,0,0,0,0,4.38L188.57,553.22A2.54,2.54,0,0,0,191.1,553.22Z"/><polygon class="cls-6" points="198.07 550.57 317.07 481.61 317.07 439.79 198.07 508.75 198.07 550.57"/><path class="cls-10" d="M191.1,520.85,327.73,442a2.53,2.53,0,0,0,0-4.38L140.42,329.45a2.54,2.54,0,0,0-2.53,0L1.26,408.33a2.53,2.53,0,0,0,0,4.38L188.57,520.85A2.54,2.54,0,0,0,191.1,520.85Z"/><rect class="cls-7" x="323.47" y="434.86" width="5.52" height="4.91" transform="translate(652.46 874.63) rotate(180)"/><rect class="cls-7" x="0.01" y="406.62" width="5.52" height="3.68" transform="translate(5.55 816.93) rotate(180)"/><path class="cls-11" d="M191.1,516.22l136.63-78.88a2.53,2.53,0,0,0,0-4.38L140.42,324.82a2.54,2.54,0,0,0-2.53,0L1.26,403.7a2.53,2.53,0,0,0,0,4.38L188.57,516.22A2.54,2.54,0,0,0,191.1,516.22Z"/><polygon class="cls-12" points="189.07 558.19 0.07 447.73 0.07 407.21 189.07 516.37 189.07 558.19"/><line class="cls-9" x1="317.25" y1="466.61" x2="201.46" y2="532.81"/><line class="cls-9" x1="317.25" y1="454.41" x2="201.46" y2="520.61"/><line class="cls-9" x1="317.25" y1="474.74" x2="201.46" y2="540.94"/><polygon class="cls-13" points="164.2 269.24 357.21 158.69 357.56 121.05 164.6 226.71 164.2 269.24"/><path class="cls-13" d="M303.68,355,165.46,272.32c-1.7-1-1.66-5.22.06-6.19L357.09,157.91a2.57,2.57,0,0,1,2.57,0l138.23,81.55a2.57,2.57,0,0,1,0,4.45L306.25,355A2.57,2.57,0,0,1,303.68,355Z"/><rect class="cls-13" x="164.24" y="263.07" width="3.56" height="4.28" transform="translate(2.5 -1.55) rotate(0.54)"/><rect class="cls-14" x="493.67" y="236.95" width="5.7" height="4.99" transform="translate(2.27 -4.65) rotate(0.54)"/><path class="cls-13" d="M303.75,347.41,165.52,265.86a2.57,2.57,0,0,1,0-4.45L357.13,153.2a2.54,2.54,0,0,1,2.57,0l138.23,81.55a2.57,2.57,0,0,1,0,4.45L306.32,347.44A2.57,2.57,0,0,1,303.75,347.41Z"/><polygon class="cls-6" points="306.05 347.72 175.57 273.36 175.97 230.82 307.07 309.34 306.05 347.72"/><line class="cls-15" x1="176.25" y1="258.11" x2="305.2" y2="333.44"/><line class="cls-15" x1="176.36" y1="245.69" x2="307.27" y2="320.85"/><line class="cls-15" x1="176.17" y1="266.38" x2="305.12" y2="341.71"/><polygon class="cls-16" points="305.97 347.72 490.09 241.85 490.44 204.21 306.37 305.89 305.97 347.72"/><path class="cls-13" d="M304.06,314.48,165.83,232.94a2.57,2.57,0,0,1,0-4.45L357.44,120.27a2.59,2.59,0,0,1,2.57,0l138.23,81.55a2.57,2.57,0,0,1,0,4.45L306.63,314.51A2.57,2.57,0,0,1,304.06,314.48Z"/><rect class="cls-14" x="164.59" y="226.02" width="3.56" height="4.27" transform="translate(2.15 -1.55) rotate(0.54)"/><rect class="cls-14" x="494.03" y="199.19" width="5.7" height="4.99" transform="translate(1.91 -4.65) rotate(0.54)"/><path class="cls-17" d="M304.1,309.77,165.87,228.23a2.57,2.57,0,0,1,0-4.45L357.49,115.56a2.59,2.59,0,0,1,2.57,0l138.23,81.55a2.57,2.57,0,0,1-.05,4.45L306.67,309.8A2.57,2.57,0,0,1,304.1,309.77Z"/><line class="cls-15" x1="487.89" y1="219.83" x2="307.27" y2="320.85"/><line class="cls-15" x1="487.81" y1="228.6" x2="307.19" y2="329.62"/><line class="cls-15" x1="487.73" y1="237.37" x2="307.1" y2="338.4"/><path class="cls-16" d="M376.86,216.52l-57.78-34.09c-2.52-1.48-2.18-4,.76-5.69l26.92-15.21c2.94-1.66,7.36-1.8,9.87-.32l57.79,34.09c2.51,1.49,2.17,4-.77,5.69L386.73,216.2C383.79,217.86,379.37,218,376.86,216.52Z"/><path class="cls-7" d="M400.9,199.71l-52-30.67c-.78-.46-.67-1.26.24-1.77h0a3.43,3.43,0,0,1,3.07-.1l52,30.67c.78.46.67,1.26-.24,1.77h0A3.43,3.43,0,0,1,400.9,199.71Z"/><path class="cls-7" d="M392.08,204.69l-52-30.67c-.77-.46-.67-1.26.24-1.77h0a3.43,3.43,0,0,1,3.07-.1l52,30.67c.78.46.67,1.26-.24,1.77h0A3.4,3.4,0,0,1,392.08,204.69Z"/><path class="cls-7" d="M383.26,209.67l-52-30.67c-.78-.46-.68-1.25.23-1.77h0a3.44,3.44,0,0,1,3.07-.1l52,30.67c.78.46.67,1.26-.24,1.77h0A3.4,3.4,0,0,1,383.26,209.67Z"/><polygon class="cls-18" points="165.43 215.23 358.44 104.67 358.79 67.03 165.83 172.69 165.43 215.23"/><path class="cls-5" d="M304.91,301,166.69,218.31c-1.71-1-1.67-5.22.05-6.2L358.32,103.9a2.54,2.54,0,0,1,2.57,0l138.23,81.55a2.57,2.57,0,0,1-.05,4.45L307.48,301A2.57,2.57,0,0,1,304.91,301Z"/><rect class="cls-5" x="165.47" y="209.05" width="3.56" height="4.27" transform="translate(1.99 -1.56) rotate(0.54)"/><rect class="cls-5" x="494.9" y="182.94" width="5.7" height="4.99" transform="translate(1.76 -4.66) rotate(0.54)"/><path class="cls-18" d="M305,293.4,166.75,211.85a2.57,2.57,0,0,1,0-4.45L358.36,99.18a2.57,2.57,0,0,1,2.57,0l138.23,81.55a2.57,2.57,0,0,1,0,4.45L307.55,293.42A2.54,2.54,0,0,1,305,293.4Z"/><polygon class="cls-6" points="307.28 293.71 176.79 219.34 177.19 176.81 308.3 255.33 307.28 293.71"/><line class="cls-15" x1="177.48" y1="204.09" x2="306.43" y2="279.43"/><line class="cls-15" x1="177.59" y1="191.68" x2="308.5" y2="266.84"/><line class="cls-15" x1="177.4" y1="212.37" x2="306.35" y2="287.7"/><polygon class="cls-16" points="307.2 293.71 491.31 187.84 491.67 150.2 307.59 251.88 307.2 293.71"/><path class="cls-5" d="M305.29,260.47,167.06,178.93a2.57,2.57,0,0,1,0-4.45L358.67,66.26a2.57,2.57,0,0,1,2.57,0l138.23,81.55a2.57,2.57,0,0,1,0,4.45L307.86,260.5A2.57,2.57,0,0,1,305.29,260.47Z"/><rect class="cls-5" x="165.82" y="172.01" width="3.56" height="4.27" transform="translate(1.64 -1.57) rotate(0.54)"/><rect class="cls-5" x="495.26" y="145.18" width="5.7" height="4.99" transform="translate(1.41 -4.67) rotate(0.54)"/><path class="cls-19" d="M305.33,255.76,167.1,174.21a2.57,2.57,0,0,1,0-4.45L358.71,61.55a2.54,2.54,0,0,1,2.57,0l138.23,81.55a2.57,2.57,0,0,1,0,4.45L307.9,255.79A2.57,2.57,0,0,1,305.33,255.76Z"/><line class="cls-15" x1="489.12" y1="165.82" x2="308.5" y2="266.84"/><line class="cls-15" x1="489.04" y1="174.59" x2="308.41" y2="275.61"/><line class="cls-15" x1="488.95" y1="183.36" x2="308.33" y2="284.38"/><polygon class="cls-7" points="475.87 173.38 494.9 185.44 374.68 229.82 475.87 173.38"/><path class="cls-20" d="M863.85,287.32v0c0-.11,0-.21,0-.32s0-.22,0-.33v-.09a1.64,1.64,0,0,0,0-.23l0-.33,0-.15v-.07s0-.06,0-.1l-.06-.32c0-.1,0-.21-.06-.31h0c0-.11-.05-.22-.08-.32s0-.22-.08-.33l0-.08v-.06l-.06-.18-.09-.3a2.25,2.25,0,0,1-.08-.24l0,0v0a2.49,2.49,0,0,0-.11-.29,2.33,2.33,0,0,0-.11-.28l0-.12,0-.05-.05-.11c0-.09-.08-.19-.13-.28s-.09-.19-.13-.29l0,0,0-.05-.15-.29c-.05-.1-.11-.19-.16-.28l-.1-.18-.05-.09-.27-.43c0-.05-.06-.1-.09-.14l0,0-.37-.54-.06-.07-.05-.07-.13-.17-.24-.29-.09-.11-.05-.06-.08-.1-.24-.26-.18-.19,0,0,0,0-.26-.26-.27-.25h0l-.27-.24-.29-.24,0,0,0,0-.21-.16-.3-.21-.08-.06,0,0h0l-.17-.12-.3-.18-1.62-.93-8.89,4.81,2.22,1.29.3.2.29.21.3.22.12.1q.22.18.45.39h0a5.77,5.77,0,0,1,.44.42l.06.05c.14.14.27.28.4.43l.06.06.37.44.07.08c.12.15.24.3.35.46l.17.24.21.3.22.35c0,.08.1.15.14.23l.12.21.21.37a.47.47,0,0,0,.05.1c.09.17.17.34.25.52l0,0c.09.19.17.37.25.56l0,.05.21.55,0,.07.18.55,0,.08c0,.18.1.37.14.55l0,.08.12.55v.08c0,.18.06.37.08.55v.07c0,.19,0,.37,0,.56s0,.18,0,.27v.67l0,.34,0,.37a2.36,2.36,0,0,0,0,.28l-.09.5L824.36,483.93c-.15.9-3.64,6.68-2.85,6.22l8.4-7.12a9.82,9.82,0,0,0,3.33-5.9l30.13-186.25.37-2.26c0-.1,0-.19,0-.28l0-.24v-.05s0-.05,0-.08,0-.22,0-.34a2.44,2.44,0,0,1,0-.27Z"/><path class="cls-16" d="M849.28,281.74c4,2.31,6.69,7.62,6,11.87L824.12,486.19c-.68,4.25-4.49,5.81-8.49,3.5l-295-170.29c-4-2.31-6.69-7.62-6-11.87L545.83,115c.69-4.25,4.49-5.82,8.49-3.5Z"/><path class="cls-21" d="M859.5,253.37,567.16,84.59h0l-.44-.25h0l-.77-.44-.3-.16-.31-.14-.31-.13a2,2,0,0,0-.31-.12l-.32-.11-.34-.09h0l-.3-.07-.14,0-.12,0-.1,0L563,83h-1l-.3,0a.76.76,0,0,0-.16,0h0l-.58.16h0l-.06,0a4.47,4.47,0,0,0-.7.33l-8.58,5a4.28,4.28,0,0,1,.69-.31,1.31,1.31,0,0,1,.28-.09l.34-.1.41-.07.16,0,.6,0h.12c.21,0,.41,0,.63.06h0c.23,0,.46.08.69.14l0,0c.23.06.45.13.68.21l.07,0a7.71,7.71,0,0,1,.73.32l.3.15.24.13,1.62.94h0L852,259a1,1,0,0,0,1.08,0l6.43-3.73A1.09,1.09,0,0,0,859.5,253.37ZM564.27,85.11Z"/><path class="cls-20" d="M867.41,264.88v0c0-.11,0-.22,0-.33s0-.21,0-.32v-.09c0-.08,0-.16,0-.23s0-.22,0-.33a.77.77,0,0,0,0-.15v-.07s0-.07,0-.1l-.06-.32-.06-.31h0c0-.11,0-.22-.08-.33s-.05-.21-.08-.32l0-.08,0-.06a1.21,1.21,0,0,0-.05-.18c0-.1-.06-.2-.1-.3a2.25,2.25,0,0,0-.08-.24V261c0-.1-.07-.2-.11-.29s-.07-.19-.11-.28a.61.61,0,0,1,0-.12l0-.05,0-.11c0-.09-.09-.19-.13-.29l-.14-.28v0l0,0c-.05-.1-.1-.2-.16-.3l-.15-.27-.11-.18,0-.09c-.09-.14-.18-.29-.28-.43l-.09-.14v0c-.12-.19-.25-.36-.37-.54l-.06-.07,0-.07-.14-.18-.23-.29-.09-.1,0-.06-.09-.1a2.85,2.85,0,0,0-.23-.26c-.06-.07-.13-.13-.19-.19l0,0,0,0-.26-.26-.28-.25h0l-.27-.23-.29-.24,0,0,0,0-.21-.16-.3-.21-.08-.06,0,0h0l-.18-.12-.3-.18-7.14-4.13-8.76,5.3,7.62,4,.3.2.29.21a3.15,3.15,0,0,1,.29.22l.12.1c.16.12.31.25.46.38h0l.44.41.06.06.4.42.06.07c.13.14.25.29.37.44l.07.08.35.46.17.24c.07.1.14.2.2.3s.15.23.23.35.09.15.14.23l.12.21c.07.12.14.24.2.37l0,.1c.09.17.18.34.26.52l0,0a5.55,5.55,0,0,1,.24.56l0,.05c.07.19.14.37.2.55l0,.07c.06.18.12.37.17.55l0,.08c.05.18.1.36.14.55l0,.08c0,.18.08.37.11.55l0,.08c0,.18.06.37.08.55v.07c0,.19,0,.37,0,.56s0,.18,0,.27v.33c0,.11,0,.23,0,.34s0,.23,0,.34,0,.24,0,.36a2.36,2.36,0,0,1,0,.28l-.08.51L827.93,461.49c-.15.9-3.65,6.68-2.86,6.22l8.4-7.12a9.83,9.83,0,0,0,3.34-5.9l30.13-186.26c.15-.9.37-2.25.37-2.25s0-.19,0-.28,0-.16,0-.24v-.05a.22.22,0,0,1,0-.08c0-.11,0-.22,0-.34v-.31Z"/><path class="cls-22" d="M852.53,259.3c4,2.31,6.69,7.62,6,11.86L827.37,463.75c-.68,4.25-4.48,5.81-8.48,3.5L523.94,297c-4-2.31-6.69-7.62-6-11.87L549.09,92.51c.69-4.25,4.48-5.82,8.49-3.51Z"/><path class="cls-17" d="M842,271.69c3.8,2.15,6.37,6.78,5.75,10.34L819.56,443.6c-.61,3.56-4.19,4.7-8,2.55L531.81,287.67c-3.8-2.15-6.37-6.78-5.75-10.34l28.18-161.57c.62-3.56,4.2-4.71,8-2.56Z"/><path class="cls-16" d="M708,186.9c0,1.85-1.31,2.6-2.92,1.67a6.46,6.46,0,0,1-2.93-5c0-1.85,1.31-2.6,2.93-1.67A6.4,6.4,0,0,1,708,186.9Z"/><path class="cls-22" d="M819.19,502.7l-.06-9L807.6,498.2l-2.47-5.69L516.59,325.92c-3.47-2-10.46-1.75-14.48.57L377,398.21v-2l-18.9,9.23-2.62-1.08.38,8.76a4.09,4.09,0,0,0,2.21,3.38L658.36,590.31c3.48,2,9.61,2,13.63-.33l143.88-83c2.19-1.26,3.31-2.83,3.31-4.38Z"/><path class="cls-23" d="M658.21,579.39,358,406c-3.48-2-3-5.54,1-7.86l143.88-83.06c4-2.32,10.14-2.58,13.61-.57L816.68,487.89c3.47,2,3,5.55-1,7.87L671.82,578.82C667.81,581.14,661.68,581.39,658.21,579.39Z"/><path class="cls-21" d="M546.31,495.63l-72.66-41.95c-.84-.49-.74-1.34.23-1.91l34.82-20.1a3.71,3.71,0,0,1,3.3-.14l72.67,42c.84.48.73,1.34-.24,1.9l-34.82,20.1A3.64,3.64,0,0,1,546.31,495.63Z"/><path class="cls-21" d="M520.8,346.66a2.32,2.32,0,0,1-2-.23l-18.23-10.52c-.65-.38-.83-.89-.4-1.15l12.08-7a2.26,2.26,0,0,1,2,.23l18.23,10.52c.66.38.84.89.4,1.14Z"/><path class="cls-21" d="M541.94,378.07a2.32,2.32,0,0,1-2-.23l-18.22-10.52c-.66-.38-.83-.89-.39-1.14l12.08-7a2.28,2.28,0,0,1,2,.23L553.61,370c.67.38.84.89.41,1.14Z"/><path class="cls-21" d="M531.25,391.11a2.33,2.33,0,0,1-2-.23L511,380.35c-.64-.37-.84-.88-.4-1.14l12.08-7a2.31,2.31,0,0,1,2,.24L542.93,383c.65.38.83.89.4,1.14Z"/><path class="cls-21" d="M502.33,393.62a2.32,2.32,0,0,1-2-.22l-18.23-10.52c-.65-.38-.83-.9-.4-1.14l12.08-7a2.32,2.32,0,0,1,2,.22L514,385.5c.66.38.83.9.4,1.15Z"/><path class="cls-21" d="M452.16,386.31a2.33,2.33,0,0,1-2-.23L432,375.56c-.65-.38-.84-.9-.4-1.15l14.18-8.19a2.29,2.29,0,0,1,2,.23L465.94,377c.66.38.83.9.4,1.14Z"/><path class="cls-21" d="M483.59,404.44a2.94,2.94,0,0,1-2.35-.44l-23.88-13.79c-.86-.49-1.21-1.1-.77-1.35l14.18-8.19a3,3,0,0,1,2.35.44L497,394.89c.87.5,1.2,1.11.78,1.36Z"/><path class="cls-21" d="M640.49,495.12a2.25,2.25,0,0,1-1.85-.31L620.43,484.3c-.67-.39-.91-.87-.55-1.08l5.24-3a2.35,2.35,0,0,1,1.87.32L645.2,491c.66.38.89.86.53,1.07Z"/><path class="cls-21" d="M664.85,509.54a2.25,2.25,0,0,1-1.85-.31l-18.22-10.51c-.66-.39-.91-.87-.54-1.08l5.24-3a2.33,2.33,0,0,1,1.86.32l18.22,10.51c.65.38.89.86.53,1.07Z"/><path class="cls-21" d="M690.67,524.1a2.26,2.26,0,0,1-1.83-.32l-18.22-10.52c-.65-.37-.92-.85-.57-1l5.05-2.92a2.33,2.33,0,0,1,1.84.32l18.22,10.52c.65.38.9.85.56,1Z"/><path class="cls-21" d="M674.79,504a2.3,2.3,0,0,1-1.83-.32l-18.22-10.52c-.65-.38-.92-.86-.57-1.06l5.05-2.92a2.3,2.3,0,0,1,1.84.33L679.28,500c.65.38.9.85.56,1.05Z"/><path class="cls-21" d="M609,476.8a2.32,2.32,0,0,1-2-.24L488.37,408.1c-.64-.37-.84-.89-.4-1.14l14.18-8.19a2.33,2.33,0,0,1,2,.23l118.62,68.45c.66.38.84.91.42,1.15Z"/><path class="cls-21" d="M596.83,466.42a7.45,7.45,0,0,1-1-.53l-94.41-54.48a5.5,5.5,0,0,1-.9-.58l.88-.51a8.15,8.15,0,0,1,1,.52l94.41,54.49a5.92,5.92,0,0,1,.91.58Z"/><path class="cls-21" d="M480.34,399.92s-.11,0-.19-.05l-13.93-8c-.08-.05-.12-.1-.1-.11l.88-.51s.12,0,.19.05l13.94,8c.08.05.12.1.09.11Z"/><path class="cls-21" d="M444.61,377.77a.14.14,0,0,1-.11,0l-5.91-3.42s0,0,0-.06l.88-.51a.15.15,0,0,1,.11,0l5.91,3.41s0,.05,0,.07Z"/><path class="cls-21" d="M527.32,408a2.32,2.32,0,0,1-2-.23l-18.22-10.52c-.65-.37-.84-.89-.41-1.14l12.08-7a2.35,2.35,0,0,1,2,.23L539,399.91c.66.38.84.9.41,1.15Z"/><path class="cls-21" d="M552.41,422.52a2.31,2.31,0,0,1-2-.23l-18.23-10.52c-.65-.38-.83-.9-.4-1.15l12.08-7a2.29,2.29,0,0,1,2,.23L564.1,414.4c.65.37.83.89.39,1.14Z"/><path class="cls-21" d="M577.51,437a2.27,2.27,0,0,1-2-.23l-18.23-10.52c-.65-.37-.83-.89-.4-1.14l12.08-7a2.33,2.33,0,0,1,2,.23l18.23,10.52c.65.38.83.89.39,1.14Z"/><path class="cls-21" d="M602.62,451.49a2.29,2.29,0,0,1-2-.23l-18.23-10.52c-.66-.38-.84-.9-.41-1.15l12.08-7a2.32,2.32,0,0,1,2,.24l18.23,10.52c.65.37.83.89.39,1.14Z"/><path class="cls-21" d="M627.72,466a2.32,2.32,0,0,1-2-.23l-18.22-10.52c-.66-.38-.83-.89-.4-1.14l12.08-7a2.3,2.3,0,0,1,2,.23l18.22,10.51c.66.39.84.91.41,1.16Z"/><path class="cls-21" d="M652.82,480.45a2.33,2.33,0,0,1-2-.23L632.62,469.7c-.66-.38-.84-.9-.41-1.15l12.08-7a2.32,2.32,0,0,1,2,.23l18.22,10.51c.65.38.83.9.4,1.15Z"/><path class="cls-21" d="M709.36,513.07a2.29,2.29,0,0,1-2-.23l-49.67-28.66c-.65-.38-.83-.89-.4-1.14l12.08-7a2.29,2.29,0,0,1,2,.23L721,505c.65.38.83.89.39,1.15Z"/><path class="cls-21" d="M556.23,405.51a2.27,2.27,0,0,1-2-.23L536,394.76c-.66-.38-.84-.88-.4-1.14l12.08-7a2.32,2.32,0,0,1,2,.24l18.23,10.52c.66.38.83.88.4,1.13Z"/><path class="cls-21" d="M581.34,420a2.33,2.33,0,0,1-2-.23l-18.23-10.53c-.65-.37-.84-.88-.4-1.13l12.08-7a2.27,2.27,0,0,1,2,.23L593,411.88c.65.38.83.89.41,1.14Z"/><path class="cls-21" d="M606.44,434.48a2.26,2.26,0,0,1-2-.23l-18.23-10.52c-.64-.37-.85-.89-.41-1.14l12.08-7a2.3,2.3,0,0,1,2,.24l18.23,10.51c.65.38.83.9.41,1.14Z"/><path class="cls-21" d="M631.53,449a2.28,2.28,0,0,1-2-.24l-18.23-10.51c-.65-.38-.84-.89-.4-1.14l12.08-7a2.27,2.27,0,0,1,2,.23l18.23,10.52c.65.38.83.89.4,1.14Z"/><path class="cls-21" d="M656.64,463.45a2.28,2.28,0,0,1-2-.24l-18.24-10.52c-.66-.38-.84-.89-.4-1.14l12.08-7a2.31,2.31,0,0,1,2,.23l18.24,10.53c.65.37.83.89.4,1.14Z"/><path class="cls-21" d="M681.73,477.93a2.31,2.31,0,0,1-2-.23l-18.22-10.52c-.66-.38-.85-.89-.41-1.15l12.08-7a2.3,2.3,0,0,1,2,.23l18.22,10.52c.66.38.83.89.41,1.14Z"/><path class="cls-21" d="M706.83,492.41a2.27,2.27,0,0,1-2-.23l-18.23-10.52c-.66-.38-.84-.89-.4-1.14l12.08-7a2.27,2.27,0,0,1,2,.23l18.23,10.52c.65.38.83.89.41,1.14Z"/><path class="cls-21" d="M566.93,392.47a2.31,2.31,0,0,1-2-.22l-18.23-10.52c-.65-.38-.83-.89-.39-1.15l12.08-7a2.3,2.3,0,0,1,2,.22l18.23,10.52c.66.38.83.9.41,1.15Z"/><path class="cls-21" d="M592,407a2.33,2.33,0,0,1-2-.23l-18.23-10.52c-.65-.38-.83-.89-.39-1.15l12.08-7a2.27,2.27,0,0,1,2,.23l18.23,10.52c.65.37.83.89.4,1.14Z"/><path class="cls-21" d="M617.12,421.44a2.28,2.28,0,0,1-2-.23l-18.22-10.52c-.65-.37-.83-.88-.39-1.14l12.08-7a2.34,2.34,0,0,1,2,.23l18.22,10.52c.66.38.84.9.41,1.14Z"/><path class="cls-21" d="M642.22,435.92a2.25,2.25,0,0,1-2-.22L622,425.18c-.66-.38-.84-.89-.4-1.15l12.08-7a2.34,2.34,0,0,1,2,.24l18.23,10.52c.66.38.83.89.4,1.13Z"/><path class="cls-21" d="M667.32,450.4a2.3,2.3,0,0,1-2-.22l-18.23-10.52c-.66-.38-.83-.89-.39-1.15l12.08-7a2.32,2.32,0,0,1,2,.24L679,442.29c.64.37.82.88.39,1.13Z"/><path class="cls-21" d="M692.43,464.89a2.32,2.32,0,0,1-2-.23l-18.23-10.52c-.64-.37-.83-.89-.39-1.15l12.08-7a2.27,2.27,0,0,1,2,.23l18.23,10.52c.66.38.84.89.41,1.14Z"/><path class="cls-21" d="M717.52,479.37a2.29,2.29,0,0,1-2-.23l-18.23-10.52c-.65-.37-.83-.89-.39-1.14l12.08-7a2.27,2.27,0,0,1,2,.23l18.23,10.52c.65.38.83.89.4,1.14Z"/><path class="cls-21" d="M516.84,363.58a2.26,2.26,0,0,1-2-.23L484,345.52c-.66-.38-.84-.89-.4-1.15l12.08-7a2.34,2.34,0,0,1,2,.24l30.91,17.83c.65.38.83.9.4,1.15Z"/><path class="cls-21" d="M759.26,484.25a2.35,2.35,0,0,1-2-.23l-30.91-17.84c-.64-.37-.83-.89-.39-1.14l12.07-7a2.32,2.32,0,0,1,2,.23l30.91,17.84c.66.37.84.89.4,1.14Z"/><path class="cls-21" d="M506.15,376.62a2.29,2.29,0,0,1-2-.23l-36.85-21.27c-.66-.38-.84-.89-.4-1.14L479,347a2.28,2.28,0,0,1,2,.24l36.85,21.26c.66.38.84.89.41,1.14Z"/><path class="cls-21" d="M477.24,379.14a2.32,2.32,0,0,1-2-.23l-24.56-14.18c-.66-.38-.84-.89-.41-1.14l12.08-7a2.32,2.32,0,0,1,2,.23L488.91,371c.66.38.84.9.4,1.15Z"/><path class="cls-21" d="M545.89,361.14a2.32,2.32,0,0,1-2-.23L525.69,350.4c-.66-.38-.84-.9-.4-1.15l12.07-7a2.3,2.3,0,0,1,2,.24L557.56,353c.67.38.84.89.41,1.14Z"/><path class="cls-21" d="M570.88,375.55a2.32,2.32,0,0,1-2-.23L550.67,364.8c-.66-.38-.84-.9-.4-1.15l12.07-7a2.26,2.26,0,0,1,2,.23l18.23,10.52c.66.38.84.89.4,1.14Z"/><path class="cls-21" d="M596,390a2.29,2.29,0,0,1-2-.23l-18.23-10.52c-.65-.37-.83-.89-.39-1.14l12.07-7a2.29,2.29,0,0,1,2,.23l18.23,10.52c.66.38.83.89.39,1.14Z"/><path class="cls-21" d="M621.08,404.52a2.35,2.35,0,0,1-2-.23l-18.22-10.52c-.66-.38-.83-.89-.4-1.14l12.08-7a2.29,2.29,0,0,1,2,.23l18.22,10.52c.66.37.84.89.4,1.14Z"/><path class="cls-21" d="M646.17,419a2.29,2.29,0,0,1-2-.23L626,408.25c-.66-.38-.84-.89-.4-1.14l12.07-7a2.32,2.32,0,0,1,2,.23l18.22,10.52c.66.38.83.89.39,1.14Z"/><path class="cls-21" d="M671.28,433.48a2.33,2.33,0,0,1-2-.23l-18.23-10.52c-.65-.38-.83-.89-.39-1.14l12.07-7a2.29,2.29,0,0,1,2,.23L683,425.36c.65.37.83.89.4,1.14Z"/><path class="cls-21" d="M696.38,448a2.29,2.29,0,0,1-2-.23l-18.23-10.52c-.66-.38-.84-.89-.41-1.15l12.08-7a2.32,2.32,0,0,1,2,.23l18.23,10.52c.65.38.83.89.4,1.15Z"/><path class="cls-21" d="M721.47,462.44a2.3,2.3,0,0,1-2-.22l-18.24-10.53c-.65-.37-.83-.89-.39-1.14l12.08-7a2.27,2.27,0,0,1,2,.22l18.24,10.53c.65.37.82.88.39,1.14Z"/><path class="cls-21" d="M736.07,475.21a2.81,2.81,0,0,0-1.07-.34,1.44,1.44,0,0,0-.9.12L722,482a.42.42,0,0,0-.22.52,1.44,1.44,0,0,0,.61.62l4.76,2.74L711.33,495a.41.41,0,0,0-.21.53,1.28,1.28,0,0,0,.61.61L724,503.23a2.88,2.88,0,0,0,1.07.36,1.46,1.46,0,0,0,.91-.12l28.72-16.59a.4.4,0,0,0,.2-.52,1.31,1.31,0,0,0-.61-.63Z"/><path class="cls-21" d="M474,373.26a.35.35,0,0,1-.19-.05l-13.93-8c-.08,0-.12-.09-.1-.11l.89-.5s.11,0,.18.05l13.94,8c.08,0,.12.09.09.11Z"/><path class="cls-2" d="M518.57,557.62l0-8.48h0c0-1.67-1-3.27-3.07-4.46l-76.34-44.23c-4.58-2.65-12.57-2.33-17.86.71L282.87,580.81c-2.75,1.58-4.22,3.59-4.36,5.53l0,0v.34a2.26,2.26,0,0,0,0,.26l.2,7.06h0c-.7,2.16.21,4.34,2.85,5.87l76.34,44.23a16.33,16.33,0,0,0,8.66,1.78,22.18,22.18,0,0,0,2.43-.23,20.88,20.88,0,0,0,4.67-1.25,16.92,16.92,0,0,0,2.1-1L514.2,563.72c2.82-1.62,4.29-3.68,4.37-5.66h0C518.57,557.91,518.58,557.76,518.57,557.62Z"/><path class="cls-21" d="M268.73,588.34l-.21-7.65,9.86,6.4s-2.78,6.94-3.08,6.7S268.73,588.34,268.73,588.34Z"/><path class="cls-24" d="M347.92,638.45l-76.34-44.23c-4.57-2.65-4-7.27,1.3-10.31l138.45-79.65c5.29-3,13.29-3.36,17.86-.71l76.34,44.23c4.57,2.65,4,7.26-1.3,10.3L365.78,637.74C360.49,640.78,352.5,641.1,347.92,638.45Z"/><path class="cls-20" d="M356.31,596.06l55-91.8c5.29-3,13.29-3.36,17.86-.71l76.34,44.23c4.57,2.65,4,7.26-1.3,10.3L365.78,637.74a20.48,20.48,0,0,1-9.2,2.49Z"/><polygon class="cls-20" points="416.55 565.68 430.6 546.67 508.63 543.51 508.6 552.43 423.29 579.47 416.55 565.68"/><path class="cls-22" d="M343.77,631.33c0,1.33-.94,1.86-2.09,1.19a4.61,4.61,0,0,1-2.09-3.62c0-1.32.94-1.86,2.09-1.19A4.61,4.61,0,0,1,343.77,631.33Z"/><path class="cls-22" d="M347.94,629.72,271.6,585.49c-4.57-2.65-4-7.27,1.3-10.31l138.45-79.65c5.29-3,13.28-3.37,17.85-.72L505.54,539c4.58,2.65,4,7.27-1.29,10.31L365.8,629C360.51,632.05,352.51,632.37,347.94,629.72Z"/><path class="cls-25" d="M469.92,526l-21.08-12.21c-.87-.5-.76-1.39.25-2h0a3.78,3.78,0,0,1,3.41-.13l21.08,12.21c.87.5.76,1.39-.25,2h0A3.78,3.78,0,0,1,469.92,526Z"/><path class="cls-22" d="M316.58,617.51l-16.93-9.81a3.12,3.12,0,0,1-1.3-2.5h0c0-1,.58-1.4,1.3-1L316.58,614a3.1,3.1,0,0,1,1.3,2.49h0C317.88,617.48,317.29,617.92,316.58,617.51Z"/><path class="cls-22" d="M484.5,566.36l8.36-4.81a2.15,2.15,0,0,0,.9-1.71h0c0-.66-.4-1-.9-.69L484.51,564a2.14,2.14,0,0,0-.9,1.72h0C483.61,566.34,484,566.64,484.5,566.36Z"/><path class="cls-22" d="M472.66,573.77,481,569a2.16,2.16,0,0,0,.9-1.72h0c0-.66-.4-1-.9-.68l-8.35,4.8a2.18,2.18,0,0,0-.9,1.72h0C471.76,573.75,472.16,574.06,472.66,573.77Z"/><path class="cls-17" d="M415.64,500.1l-116.42,67a4.07,4.07,0,0,0,0,7L369.77,615a4.06,4.06,0,0,0,4.06,0l116.43-67a4.07,4.07,0,0,0,0-7l-70.56-40.88A4.08,4.08,0,0,0,415.64,500.1Z"/><path class="cls-22" d="M155.06,390.85l.38.22a3.34,3.34,0,0,0,3,.18,5.17,5.17,0,0,0,2.81-3.6l8.44-31.55,39.1,22.3-8.66,32.37c-.77,2.86.17,5.89,2.19,7l.38.22a3.47,3.47,0,0,0,1.7.46,3.35,3.35,0,0,0,1.33-.28,5.2,5.2,0,0,0,2.81-3.6l10.24-38.28.06-.23h0l19-71.07h0l.47-1.75,9.83-36.78.31-1.17h0L266,199.87c.76-2.87-.18-5.89-2.19-7l-.38-.22a3.38,3.38,0,0,0-3-.19,5.19,5.19,0,0,0-2.81,3.61l-6.51,24.33L212,198.07l6.73-25.16c.77-2.87-.17-5.9-2.19-7l-.38-.22a3.37,3.37,0,0,0-3-.19,5.22,5.22,0,0,0-2.81,3.61l-7.63,28.51h0l-.74,2.77h0L192.68,235l-.63,2.34h0l-9.13,34.14h0l-.74,2.78h0l-9.13,34.13v0l-.75,2.77h0l-9.18,34.34-.69,2.58h0l-9.56,35.73C152.1,386.67,153.05,389.7,155.06,390.85Zm83.38-123.23-7.11,26.59-39.1-22.29,7.11-26.6Zm-9.87,36.92-7.11,26.6-39.1-22.29,7.11-26.6ZM209.22,208.4l39.1,22.29-7.11,26.59L202.11,235Zm2.36,159.67-39.1-22.3,7.11-26.59,39.1,22.29Z"/><ellipse class="cls-2" cx="332.84" cy="171" rx="27.34" ry="10.45"/><ellipse class="cls-22" cx="321.38" cy="170.25" rx="9.53" ry="16.51" transform="matrix(0.01, -1, 1, 0.01, 149.44, 490.73)"/><polygon class="cls-26" points="344.81 160.14 297.79 160.88 297.79 110.91 344.81 110.91 344.81 160.14"/><ellipse class="cls-26" cx="321.31" cy="160.63" rx="23.52" ry="13.64" transform="translate(-0.43 0.86) rotate(-0.15)"/><path class="cls-22" d="M344.89,124.52c-.33-.21-.67-.42-1-.63-12.53-7.23-32.78-7.26-45.23-.07l-.76.45v25.12c.29.19.59.37.9.55,12.53,7.23,32.78,7.27,45.24.07.3-.17.59-.35.88-.53Z"/><ellipse class="cls-26" cx="321.24" cy="132.06" rx="18.47" ry="31.99" transform="translate(187.48 452.6) rotate(-89.7)"/><rect class="cls-26" x="289.26" y="120.83" width="63.97" height="11.79"/><ellipse class="cls-16" cx="321.24" cy="120.83" rx="18.47" ry="31.99" transform="translate(198.72 441.43) rotate(-89.7)"/><path class="cls-8" d="M378.75,52.85C378.75,23.66,353,0,321.24,0s-57.51,23.66-57.51,52.85c0,16,7.72,30.31,19.92,40,6.68,7.34,9.73,16.37,11.12,22.9a18.39,18.39,0,0,0,12,13.55c9.91,3.4,19.47,3.82,28.59.39a18,18,0,0,0,11.26-13.28A47.65,47.65,0,0,1,357.68,94c.2-.22.37-.43.54-.64C370.77,83.63,378.75,69.1,378.75,52.85Z"/><ellipse class="cls-7" cx="320.68" cy="114.81" rx="11.48" ry="19.88" transform="matrix(0.01, -1, 1, 0.01, 204.18, 434.88)"/><path class="cls-7" d="M324.09,119.14a1.5,1.5,0,0,1-1.5-1.5V78.57l-.52-.09A32.27,32.27,0,0,1,316.54,77v37.24a1.49,1.49,0,0,1-3,0V75.73A32.27,32.27,0,0,1,305.22,70c-4.14-3.94-6.79-8.6-7.27-12.79s1.22-7.24,4.62-8.69,6.07-1.34,8.39.16c5.28,3.4,5.57,13.16,5.58,13.57V73.81a30.38,30.38,0,0,0,6,1.73l.2,0c.92-10.51,3.2-16.75,6.93-19a7.16,7.16,0,0,1,6.91-.17c5.31,2.3,7.86,7.13,6.48,12.3S336.16,78.92,327,78.92l-1.39,0v38.75A1.5,1.5,0,0,1,324.09,119.14Zm1.67-43.23c8.35.44,13.33-3.73,14.47-8,1-3.71-.85-7.08-4.79-8.79a4.28,4.28,0,0,0-4.16,0C329.28,60.31,326.77,64.25,325.76,75.91Zm-18.82-25.4a8.39,8.39,0,0,0-3.2.76c-2.73,1.17-3,3.7-2.82,5.61.54,4.71,5,11.43,12.64,15.52V62.32c-.07-2.4-.94-9-4.22-11.12A4.29,4.29,0,0,0,306.94,50.51Z"/><ellipse class="cls-27" cx="293.41" cy="45.06" rx="20.38" ry="14.72" transform="translate(125.34 289.75) rotate(-64.25)"/><ellipse class="cls-2" cx="304.95" cy="528.16" rx="27.21" ry="16.15" transform="matrix(1, -0.09, 0.09, 1, -44.53, 28.35)"/><path class="cls-10" d="M319.41,516.7l-12.16-5.85-6.35.22c-.38,8.39.34,7.24,3.08,8.8l10.33,3.82c5.29,1.31,6.88,1.28,9.43-.52h0C325.07,521,323,519,319.41,516.7Z"/><path class="cls-10" d="M304.77,534.09l-8.4-10.56L290.56,521c-4,7.39-2.85,6.66-1.06,9.27l7.64,7.92c4.19,3.49,5.63,4.16,8.72,3.64h0C308,540.44,307,537.72,304.77,534.09Z"/><path class="cls-3" d="M260.34,404.81c5.76,6.62,9.94,12.36,12.88,20.6,2.79,7.84,4.58,15.8,6.62,23.84,1.26,5,9,2.87,7.71-2.13-2.34-9.22-4.46-18.31-7.87-27.24-3.1-8.13-8-14.19-13.68-20.72-3.39-3.89-9,1.79-5.66,5.65Z"/><path class="cls-19" d="M269.89,395.65,280,414.49c1.64,6-11.8,10.14-13.59,5.33l-8.18-18.94a6.39,6.39,0,0,1,3.21-7.95h0A6.39,6.39,0,0,1,269.89,395.65Z"/><path class="cls-22" d="M261.37,442.63c8,3,16.08,5.73,24.17,8.46,4.33,1.46,8.94,2.9,12.69,5.59A25.8,25.8,0,0,1,306.36,467c2.49,5.2,2.88,10.75,3.36,16.46.78,9.27,1,18.65-.4,27.87-.51,3.32-4.67,5.15-7.64,4.34-3.54-1-4.86-4.31-4.34-7.64,1.37-8.87.6-18.51-.31-27.44a44.64,44.64,0,0,0-1-6.58c.39,1.86-.12-.22-.37-.74s-.45-.93-.69-1.39c-.55-1.06-1.18-2.06-1.81-3.08s.95.89-.24-.29c-.34-.34-.71-.71-1-1.07s-1.33-1,.1,0c-.42-.3-.84-.59-1.28-.86a23.68,23.68,0,0,0-3.05-1.56c1.39.62,0,0-.35-.13l-2.08-.77c-9-3.23-18.16-6.08-27.14-9.48-3.13-1.18-5.28-4.19-4.33-7.64.82-3,4.48-5.53,7.64-4.34Z"/><path class="cls-22" d="M252.27,453.94c7.25,4.32,14.76,8.43,21.58,13.44,4.29,3.15,8.25,6.73,10.66,11.56,2.32,4.65,3.3,9.65,4.87,14.55,2.8,8.73,5.66,17.41,7.86,26.33,1.91,7.76-10.06,11.07-12,3.3-2.13-8.65-4.84-17.1-7.61-25.56-.69-2.11-1.21-4.25-1.81-6.39-.33-1.14-.66-2.28-1-3.41-.18-.51-.36-1-.55-1.52-.44-1.21.46.85-.25-.59a19.54,19.54,0,0,0-7-7.93c-6.73-4.77-14-8.83-21-13.05-6.86-4.09-.62-14.84,6.27-10.73Z"/><path class="cls-28" d="M262.28,467.83l14.25-8.23a7.15,7.15,0,0,0,2.61-9.75h0a7.15,7.15,0,0,0-9.74-2.61l-14.26,8.23a7.17,7.17,0,0,0-2.61,9.75h0A7.16,7.16,0,0,0,262.28,467.83Z"/><path class="cls-19" d="M277.77,443.4c-1.59.1-7.3-14.18-7.54-44L233.46,419.3c4.16,19.31.58,19.67,9.26,43.24Z"/><path class="cls-19" d="M257,454.08c-.76,1.55-14.05-5-15.81-29.38-.23-3.09-.64-3.35-3.53-2.23l-4.19-2.21c2.35,15.74.41,20.51,4.72,35.32A7.52,7.52,0,0,0,250,459.44Z"/><path class="cls-19" d="M252.16,466.18c10.55-4.24,20.58-8.84,26.31-16.36,2.88-1.79,2.41-4.77-1-6.61h0c-3.45-1.85-8.39-4.51-11.27-2.72l-25,17.05c-2.88,1.79-1,3.73,2.49,5.58v-1.9C247.12,463.06,249.28,468,252.16,466.18Z"/><path class="cls-19" d="M241.09,458.63l7.17-11.12c16.65,21.94,25.56,5.27,29.51,3.19-5.9,6.38-14.54,10.78-24.13,14.64-2.88,1.79-8.06,1.74-11.51-.1h0C238.68,463.39,238.21,460.42,241.09,458.63Z"/><path class="cls-19" d="M267.34,392.66c2.65,2.58,2.63,4.41,3.07,8.38a8.91,8.91,0,0,1-5.29,9.15l-36.56,16s-4.22-14.33,2.67-19.78c3.71-2.94,9.45-7.61,14-11.3C251.8,389.68,261.21,386.69,267.34,392.66Z"/><path class="cls-3" d="M251.7,399.25l3-16.51-9.93,3.94-2.47,13.48C241.76,402.37,249.25,407.75,251.7,399.25Z"/><path class="cls-29" d="M252.3,395.42c-.15.42-5-1.2-4.87-1.73,0,0,2.11,3.11,4.54,4.08Z"/><path class="cls-3" d="M229.15,414.85c-.71,7.19-2,14.33-2.51,21.53-.46,6.23-1.59,14.49,1.81,20.18,5.71,9.55,21.18,5.6,30.2,8.29,4.94,1.47,7.05-6.24,2.13-7.71a59.45,59.45,0,0,0-14.84-2.09c-4.08-.16-9.58.56-11.2-4.08-1.81-5.18-.36-12.68.2-18.06.64-6,1.61-12,2.21-18.06.51-5.11-7.49-5.08-8,0Z"/><path class="cls-3" d="M282,443.84h0a4.36,4.36,0,0,0-1.61,5.93l4.12,7.18a4.36,4.36,0,0,0,5.94,1.61h0a4.36,4.36,0,0,0,1.6-5.93l-4.12-7.18A4.35,4.35,0,0,0,282,443.84Z"/><path class="cls-19" d="M240,413.75l-1.11,21.37c-1.74,6-15.35,2.53-14.38-2.51l2.85-20.43a6.38,6.38,0,0,1,6.87-5.12h0A6.37,6.37,0,0,1,240,413.75Z"/><path class="cls-21" d="M255.77,463.27l3.28-1,1.15.44.24-.56L289,445.64a1.5,1.5,0,0,1,1.35.05l12.3,7.11v-.2l2.28.91v.94h0a.42.42,0,0,1-.21.25L275,471.87s-.06.06-.07.13c-.4,2.52-1.26,4.79-3.46,3.47l-13.63-7.9a3.7,3.7,0,0,1-1.91-2.89Z"/><path class="cls-23" d="M274,474.49l34.25-19.77c.39-.23.34-.63-.11-.9l-16.41-9.47a1.73,1.73,0,0,0-1.56-.07l-34.25,19.78c-.39.23-.34.63.12.89l16.41,9.48A1.73,1.73,0,0,0,274,474.49Z"/><path class="cls-21" d="M271.62,461.76l8.29-4.79c.09-.05.08-.15,0-.22l-4-2.29a.42.42,0,0,0-.38,0l-8.29,4.78c-.09.06-.08.15,0,.22l4,2.29A.43.43,0,0,0,271.62,461.76Z"/><path class="cls-16" d="M274.83,452.24a3.71,3.71,0,0,1,1.58-2.38l34-19.33a.87.87,0,0,1,.75-.12h0a.49.49,0,0,1,.18.14l1.12,1.18-1-.09-3.23,20.9a3.71,3.71,0,0,1-1.58,2.38l-32.15,18.27-1,1.17-.13.29c-.65.14-2.21-1-2.21-1Z"/><path class="cls-10" d="M273.84,475.51l34-19.33a3.7,3.7,0,0,0,1.57-2.38l3.27-21.13c.14-.9-.34-1.29-1.07-.88l-34,19.33A3.67,3.67,0,0,0,276,453.5l-3.27,21.13C272.63,475.53,273.11,475.92,273.84,475.51Z"/><path class="cls-16" d="M291.91,455.05c-.17,1.13.85,1.38,2.28.56a6.07,6.07,0,0,0,2.9-3.5c.17-1.12-.85-1.37-2.27-.56A6.13,6.13,0,0,0,291.91,455.05Z"/><path class="cls-3" d="M271.48,464.35h0a4.64,4.64,0,0,0-3-5.82l-8.33-2.73a4.63,4.63,0,0,0-5.82,2.94h0a4.64,4.64,0,0,0,2.95,5.82l8.33,2.73A4.63,4.63,0,0,0,271.48,464.35Z"/><path class="cls-30" d="M252.22,397.3c1.08,2.5-2.88,4.13-4.75,3.92-1-.12-2.93-.33-3.65-1.09a4.08,4.08,0,0,1-.36-3.73c.79-1.52-1.51-2.87-2.31-1.34a7.05,7.05,0,0,0,.29,6.4c1.22,1.76,4.06,2.23,6,2.42,4.23.42,9-3.54,7.05-7.93-.68-1.57-3-.21-2.3,1.35Z"/><rect class="cls-3" x="244.96" y="363.68" width="19.82" height="32.09" rx="8.41" ry="8.41" transform="translate(467.25 784.76) rotate(-173.8)"/><path class="cls-22" d="M253.14,375.51c3,1.71,5.56,1.11,9.13,0,3.88-1.17,5.28-4.72,2.53-7.69-1.49-1.6-2.47-3.31-5.77-5-9.36-4.64-19.95-.87-21.14,10.13,0,0-1.64,12.14,4.3,16.7a2,2,0,0,0,3-.94h0s-3.3-3.55.85-6.11a6.16,6.16,0,0,0,2.59-4.64C248.7,376.18,251.52,374.6,253.14,375.51Z"/><path class="cls-3" d="M243,386.52a2,2,0,0,0,3.54-.27,4.84,4.84,0,0,0-.59-5.09,2,2,0,0,0-3.54.27A4.84,4.84,0,0,0,243,386.52Z"/><path class="cls-22" d="M262.51,375.41c.08.27-9.71,2.35-12.81,8.57-.56,1.13-2.38.64-2.85-.53a8.7,8.7,0,0,1,.46-8.16C250.62,370.2,261.9,373.41,262.51,375.41Z"/><ellipse class="cls-2" cx="578" cy="657.67" rx="15.49" ry="26.09" transform="translate(-127.19 1176.63) rotate(-85.04)"/><ellipse class="cls-2" cx="42.31" cy="499.61" rx="26.09" ry="15.49" transform="translate(-43.05 5.53) rotate(-4.96)"/><path class="cls-22" d="M557.61,472.67a3.31,3.31,0,0,0-1.92-4.48c-2.25-.79-5.05-.86-6.27,2.86-1.39,4.24-4.64,12.31-6.85,17.67a1.83,1.83,0,0,0,3,2,9.62,9.62,0,0,0,2.67-4.94s-1.23,3.45-2.52,6.34a1.82,1.82,0,0,0,2.32,2.45c2.63-1,5.54-3.13,5.6-7.29C553.71,482.16,556.06,476.1,557.61,472.67Z"/><path class="cls-28" d="M560.69,473.36c-1.14,1.76-3,2.61-4.05,1.89s-1.06-2.71.09-4.47,3-2.61,4.06-1.89S561.84,471.61,560.69,473.36Z"/><path class="cls-3" d="M582.26,534.05a6.86,6.86,0,0,1-2.1.8c-1.75.24-3.64-.82-5.38-1.84a1.37,1.37,0,0,1-.45-.35,1.3,1.3,0,0,1-.1-1.12c.63-2.14,1.65-2.08,3.12-3.31.67-.56,1.26-1.21,1.91-1.78a19.59,19.59,0,0,1,3.38-2.2h0c1.42-.79,6.6-3.51,7.66.38a4,4,0,0,1-.52,3.87,10.62,10.62,0,0,1-2.85,2.86A42.47,42.47,0,0,1,582.26,534.05Z"/><path class="cls-3" d="M574.89,530.3a16.83,16.83,0,0,1,1.5-3.48A5.49,5.49,0,0,1,579,524.7c2-.81,5.46-2,6.59-1.19,1.46,1,0,2.72-.94,3.76-1.81,2.08-4.87,3.54-7.35,4.47a.9.9,0,0,1-1-.17c-.11.22.81-.38.71-.14C576.42,532.84,574.34,531.7,574.89,530.3Z"/><polygon class="cls-31" points="575.4 529.59 573 532.12 577.67 537.62 580.44 534.81 575.4 529.59"/><path class="cls-22" d="M592.18,652.44l-10.93-8.33L574.87,643c-2.11,8.3-1.15,7.29,1.27,9.42l9.51,5.92c5,2.4,6.6,2.7,9.52,1.42h0C596.94,657.91,595.27,655.47,592.18,652.44Z"/><path class="cls-22" d="M579.94,660.37,569,652,562.63,651c-2.11,8.3-1.15,7.29,1.27,9.42l9.51,5.92c5,2.4,6.6,2.7,9.52,1.42h0C584.7,665.84,583,663.4,579.94,660.37Z"/><path class="cls-16" d="M561.2,506.62c3.8-3.77,10.54-5.22,15.69-5.16a1.32,1.32,0,0,0,0-2.64c-5.86-.07-13.26,1.67-17.56,5.93-1.21,1.2.66,3.06,1.87,1.87Z"/><path class="cls-8" d="M582.2,504.87a277.38,277.38,0,0,0,6,42c1.51,6.62,11.7,3.86,10.19-2.77a259.54,259.54,0,0,1-5.65-39.15c-.49-6.73-11-6.83-10.55,0Z"/><path class="cls-3" d="M580,558.16c.41,28.79-1.1,57-5.91,85.35-1.13,6.64,9,9.5,10.18,2.81,5-29.32,6.71-58.41,6.29-88.16-.1-6.79-10.65-6.81-10.56,0Z"/><path class="cls-3" d="M566.15,566.37c-1.65,28.71-4.2,57.43-4.25,86.2,0,6.8,10.55,6.81,10.56,0,0-28.77,2.6-57.49,4.25-86.2.38-6.79-10.17-6.76-10.56,0Z"/><path class="cls-8" d="M555.86,569.64c1.07,14.83,10.56,16.32,20.14,10.8s14.9-18.11,14.9-29.17c0,0-5.33-16.4-14.91-10.87S554.62,552.41,555.86,569.64Z"/><path class="cls-8" d="M588.5,508.35s6.34,10,5.62,16c-.47,3.82-3.22,8.12-3.63,9.35-3.3,10-1.47,13.06-1.83,15.83,0,0-2.2,9.53-25.73.52l-9.88-29Z"/><path class="cls-8" d="M554.79,527.36a3.16,3.16,0,0,1-1.08-2c-.6-5.17-3.44-7.52,2.19-16.39.9-1.42,13.22-7.8,22.48-9.48a9.86,9.86,0,0,1,10.73,5.88,51.26,51.26,0,0,1,2.09,7.29c.44,9.5-3.77-3-4.44,2.27,0-.13.06-.26.07-.38s-1.14,8.86-2,15.73c-.54,4.28-.92,7.38-1,7.81v.06L567.8,550.85l-8.45-15.25h0Z"/><path class="cls-3" d="M577.8,499.41s8,8.29,1.07,14.16-18.82-7.25-18.82-7.25C566.28,502.42,572.26,499.78,577.8,499.41Z"/><path class="cls-8" d="M590.9,551.27l5.69,39.1a2.26,2.26,0,0,1-.49,1.51c-2.18,2.9-13.23,10.5-37.37,6.23-2.78-.49-3.24-.62-3.23-2.45l1.4-31.13,14.22-.14Z"/><path class="cls-3" d="M574.17,504.19,578,489.41l-9.26,2.93-3.12,12.07C565,506.38,571.4,511.74,574.17,504.19Z"/><path class="cls-16" d="M578.11,500.55c.28,3.5,3.59,9.31-.18,11.54-5.69,3.37-12.74-3.06-16.51-6.72-1.23-1.18-3.09.68-1.87,1.87,4.7,4.55,11.59,10.48,18.63,7.63s3-8.71,2.57-14.32c-.13-1.68-2.77-1.7-2.64,0Z"/><rect class="cls-3" x="564.91" y="469.38" width="19.01" height="30.78" rx="8.06" ry="8.06" transform="translate(1265.4 780.58) rotate(163.01)"/><path class="cls-29" d="M575.77,500.15a12.65,12.65,0,0,1-5.71-.66s2.61,2.78,5.48,3.08Z"/><path class="cls-22" d="M571.79,474.24s-2.41,11.72-5.73,15.26l1.09,2.13a7.93,7.93,0,0,1,.18,6.86l-.41.9s-21.81-12.07-8-27.23c9.35-10.26,24.4-5,24.39,6Z"/><path class="cls-3" d="M566,495.37a1.93,1.93,0,0,0,2.86-1.85,4.66,4.66,0,0,0-2.83-4,1.94,1.94,0,0,0-2.86,1.86A4.63,4.63,0,0,0,566,495.37Z"/><path class="cls-3" d="M604.19,555.59l-3.55,2.26c-1.73,1.11-3.78,1-4.55-.18l-.54-.85c-.78-1.21,0-3.1,1.75-4.21l3.54-2.26c1.74-1.1,3.79-1,4.56.19l.54.84C606.71,552.59,605.92,554.48,604.19,555.59Z"/><path class="cls-21" d="M574.42,551.84V551l1.11.43.24-.55,27.8-16.05a1.45,1.45,0,0,1,1.31.05l12,6.91v-.19l2.21.89v.91h0a.37.37,0,0,1-.21.24l-28.93,16.71a1.48,1.48,0,0,1-1.31-.06l-13.87-8a.56.56,0,0,1-.32-.43Z"/><path class="cls-23" d="M589.94,559.41l28.93-16.7c.33-.19.29-.54-.09-.76l-13.87-8a1.45,1.45,0,0,0-1.31-.06L574.67,550.6c-.34.19-.3.53.09.75l13.86,8A1.47,1.47,0,0,0,589.94,559.41Z"/><path class="cls-21" d="M588,548.65l7-4c.08-.05.07-.13,0-.18l-3.36-1.94a.34.34,0,0,0-.31,0l-7,4c-.08.05-.07.13,0,.18l3.35,1.94A.33.33,0,0,0,588,548.65Z"/><path class="cls-16" d="M590.67,540.61a3.14,3.14,0,0,1,1.34-2l28.72-16.33a.75.75,0,0,1,.64-.1h0a.33.33,0,0,1,.15.11l1,1-.86-.08-2.73,17.65a3.16,3.16,0,0,1-1.33,2l-27.17,15.44-.87,1-.11.24c-.55.12-1.87-.81-1.87-.81Z"/><path class="cls-22" d="M589.84,560.27l28.72-16.33a3.14,3.14,0,0,0,1.34-2l2.76-17.85c.12-.76-.29-1.09-.91-.74L593,539.67a3.14,3.14,0,0,0-1.34,2l-2.76,17.85C588.82,560.29,589.22,560.62,589.84,560.27Z"/><path class="cls-16" d="M605.1,543c-.14,1,.72,1.16,1.92.47a5.16,5.16,0,0,0,2.46-3c.14-1-.72-1.16-1.92-.48A5.17,5.17,0,0,0,605.1,543Z"/><path class="cls-3" d="M552.31,513c-2.95,6.81-6.81,13.82-7.59,21.32-.58,5.47-1.08,14.39,2.91,18.73,3.8,4.13,10.13,3.41,15.07,2.38,3-.64,6-1.61,9-2.53,1.31-.41,2.62-.8,3.94-1.17.54-.16,2-.22,1.32-.38,4.94,1.26,7-6.38,2.1-7.63-3.65-.93-7.83,1-11.25,2.11s-9.88,3.9-13.37,2.33c-2.91-1.31-2.19-10-1.88-13,.65-6.34,4.11-12.44,6.6-18.19,2-4.62-4.81-8.66-6.84-4Z"/><path class="cls-8" d="M550.66,512.16c-5.79,11.44-6.42,23.79-6.42,36.05,0,5.52,10.55,5.77,10.55.23,0-11.57.53-23,6-33.78,2.59-5.1-7.57-7.55-10.12-2.5Z"/><rect class="cls-3" x="578.08" y="540.84" width="8.29" height="13.45" rx="3.79" ry="3.79" transform="translate(1262.19 127.49) rotate(105.05)"/><path class="cls-16" d="M661.17,334.39,565.75,279.3a4.61,4.61,0,0,1-2-4.59l22.29-115.89c.33-1.71,1.75-2.43,3.18-1.61l95.42,55.09a4.63,4.63,0,0,1,2,4.59L664.34,332.78A2,2,0,0,1,661.17,334.39Z"/><path class="cls-20" d="M629.13,200.3l-39.41-22.76a4.14,4.14,0,0,1-1.78-4.1h0a1.84,1.84,0,0,1,2.84-1.44l39.42,22.76a4.13,4.13,0,0,1,1.77,4.1h0A1.84,1.84,0,0,1,629.13,200.3Z"/><path class="cls-20" d="M657.9,249.42l-73.81-42.61a4.15,4.15,0,0,1-1.78-4.1h0a1.84,1.84,0,0,1,2.84-1.44L659,243.89a4.13,4.13,0,0,1,1.77,4.1h0A1.83,1.83,0,0,1,657.9,249.42Z"/><path class="cls-20" d="M675.11,242.79,587,191.9a4.16,4.16,0,0,1-1.77-4.1h0a1.83,1.83,0,0,1,2.84-1.44l88.15,50.9a4.13,4.13,0,0,1,1.78,4.09h0A1.84,1.84,0,0,1,675.11,242.79Z"/><path class="cls-20" d="M669.46,272.17,581.3,221.28a4.15,4.15,0,0,1-1.77-4.1h0a1.84,1.84,0,0,1,2.84-1.44l88.15,50.9a4.12,4.12,0,0,1,1.77,4.1h0A1.82,1.82,0,0,1,669.46,272.17Z"/><path class="cls-20" d="M666.66,286.71l-88.15-50.9a4.13,4.13,0,0,1-1.78-4.1h0a1.84,1.84,0,0,1,2.84-1.43l88.16,50.89a4.15,4.15,0,0,1,1.77,4.1h0A1.84,1.84,0,0,1,666.66,286.71Z"/><path class="cls-20" d="M663.8,301.56l-88.15-50.9a4.13,4.13,0,0,1-1.77-4.1h0a1.83,1.83,0,0,1,2.84-1.43L664.87,296a4.12,4.12,0,0,1,1.77,4.1h0A1.84,1.84,0,0,1,663.8,301.56Z"/><path class="cls-20" d="M677.87,228.43l-39.42-22.75a4.12,4.12,0,0,1-1.77-4.1h0a1.84,1.84,0,0,1,2.84-1.44l39.41,22.76a4.14,4.14,0,0,1,1.78,4.1h0A1.83,1.83,0,0,1,677.87,228.43Z"/><path class="cls-20" d="M628.23,297.58l-55.45-32a4.15,4.15,0,0,1-1.77-4.1h0a1.83,1.83,0,0,1,2.84-1.43l55.45,32a4.13,4.13,0,0,1,1.77,4.1h0A1.83,1.83,0,0,1,628.23,297.58Z"/><path class="cls-20" d="M660.94,316.47l-22.21-12.83a4.13,4.13,0,0,1-1.78-4.1h0a1.83,1.83,0,0,1,2.84-1.43L662,310.93a4.14,4.14,0,0,1,1.78,4.1h0A1.84,1.84,0,0,1,660.94,316.47Z"/><path class="cls-16" d="M777.41,400.79,682,345.7a4.62,4.62,0,0,1-2-4.59L702.3,225.22c.32-1.71,1.75-2.43,3.17-1.6l95.42,55.09a4.6,4.6,0,0,1,2,4.59L780.59,399.18C780.26,400.9,778.84,401.62,777.41,400.79Z"/><path class="cls-20" d="M745.38,266.7,706,243.94a4.13,4.13,0,0,1-1.77-4.1h0a1.83,1.83,0,0,1,2.84-1.43l39.41,22.75a4.15,4.15,0,0,1,1.78,4.1h0A1.83,1.83,0,0,1,745.38,266.7Z"/><path class="cls-20" d="M774.15,315.83l-73.82-42.62a4.13,4.13,0,0,1-1.77-4.1h0a1.84,1.84,0,0,1,2.84-1.44l73.81,42.62a4.14,4.14,0,0,1,1.78,4.1h0A1.84,1.84,0,0,1,774.15,315.83Z"/><path class="cls-20" d="M791.35,309.19,703.2,258.3a4.12,4.12,0,0,1-1.77-4.1h0a1.84,1.84,0,0,1,2.84-1.44l88.15,50.9a4.13,4.13,0,0,1,1.77,4.1h0A1.83,1.83,0,0,1,791.35,309.19Z"/><path class="cls-20" d="M785.7,338.58l-88.15-50.9a4.12,4.12,0,0,1-1.77-4.1h0a1.82,1.82,0,0,1,2.83-1.43L786.77,333a4.13,4.13,0,0,1,1.77,4.1h0A1.84,1.84,0,0,1,785.7,338.58Z"/><path class="cls-20" d="M782.91,353.11l-88.16-50.9a4.14,4.14,0,0,1-1.77-4.09h0a1.83,1.83,0,0,1,2.84-1.44L784,347.58a4.13,4.13,0,0,1,1.78,4.09h0A1.84,1.84,0,0,1,782.91,353.11Z"/><path class="cls-20" d="M780.05,368l-88.15-50.9a4.13,4.13,0,0,1-1.78-4.09h0a1.84,1.84,0,0,1,2.84-1.44l88.16,50.89a4.16,4.16,0,0,1,1.77,4.1h0A1.83,1.83,0,0,1,780.05,368Z"/><path class="cls-20" d="M794.12,294.84,754.7,272.08a4.14,4.14,0,0,1-1.78-4.1h0a1.84,1.84,0,0,1,2.84-1.44l39.42,22.76a4.12,4.12,0,0,1,1.77,4.1h0A1.83,1.83,0,0,1,794.12,294.84Z"/><path class="cls-20" d="M744.48,364,689,332a4.1,4.1,0,0,1-1.77-4.09h0a1.83,1.83,0,0,1,2.84-1.44l55.44,32a4.14,4.14,0,0,1,1.78,4.1h0A1.84,1.84,0,0,1,744.48,364Z"/><path class="cls-16" d="M369.51,602.71l-53-30.59c-1-.58-.88-1.59.28-2.26l99.24-57.3a4.36,4.36,0,0,1,3.92-.16L473,543c1,.58.88,1.59-.28,2.26l-99.24,57.3A4.36,4.36,0,0,1,369.51,602.71Z"/><path class="cls-20" d="M428.28,534.85,407,522.56c-1-.55-.84-1.53.27-2.18l.65-.37a4.23,4.23,0,0,1,3.77-.16L433,532.14c1,.56.84,1.54-.27,2.18l-.65.37A4.23,4.23,0,0,1,428.28,534.85Z"/><path class="cls-20" d="M422.85,560.35,382.2,536.88c-1-.56-.84-1.54.27-2.18l.65-.37a4.23,4.23,0,0,1,3.77-.16l40.65,23.47c1,.55.84,1.53-.27,2.17l-.65.38A4.23,4.23,0,0,1,422.85,560.35Z"/><path class="cls-20" d="M443.55,557.71l-48.71-28.13c-1-.55-.84-1.53.27-2.17l.64-.38a4.22,4.22,0,0,1,3.78-.15L448.24,555c1,.56.84,1.54-.27,2.18l-.65.37A4.17,4.17,0,0,1,443.55,557.71Z"/><path class="cls-20" d="M418.66,572.08,369.94,544c-1-.56-.84-1.54.27-2.18l.65-.37a4.2,4.2,0,0,1,3.77-.16l48.71,28.13c1,.55.85,1.53-.27,2.17l-.64.38A4.2,4.2,0,0,1,418.66,572.08Z"/><path class="cls-20" d="M406.34,579.19l-48.71-28.12c-1-.56-.85-1.54.27-2.18l.64-.37a4.17,4.17,0,0,1,3.77-.16L411,576.49c1,.55.84,1.53-.27,2.17l-.65.38A4.2,4.2,0,0,1,406.34,579.19Z"/><path class="cls-20" d="M393.76,586.46,345,558.33c-1-.55-.84-1.53.27-2.18l.65-.37a4.23,4.23,0,0,1,3.77-.16l48.72,28.13c1,.56.84,1.54-.27,2.18l-.65.37A4.23,4.23,0,0,1,393.76,586.46Z"/><path class="cls-20" d="M455.72,550.69,434.43,538.4c-1-.56-.84-1.54.27-2.18l.65-.37a4.23,4.23,0,0,1,3.77-.16L460.41,548c1,.56.84,1.53-.28,2.18l-.64.37A4.23,4.23,0,0,1,455.72,550.69Z"/><path class="cls-20" d="M362.72,583.12l-30.31-17.49c-1-.56-.84-1.54.27-2.18l.65-.38a4.2,4.2,0,0,1,3.77-.15l30.31,17.5c1,.55.84,1.53-.27,2.17l-.65.38A4.2,4.2,0,0,1,362.72,583.12Z"/><polyline class="cls-32" points="814.96 336.99 824.96 355.52 809.96 367.54"/><polyline class="cls-32" points="562.19 194.81 546.33 208.66 556.16 225.17"/><path class="cls-3" d="M436.62,27.87s-7-5.13-7.36,6.92C429,43.17,432,51.73,439.31,53.68c7.78,2.06,10.94,0,11.28-4.19,1.16-6.07,1.32-11.76-.56-16.71.4-5-3.1-3.31-9.08-3.78Z"/><path class="cls-3" d="M453.26,45.09h0a.74.74,0,0,1-.31.57,5,5,0,0,1-1.61,1,1.08,1.08,0,0,1-.88,0,1.07,1.07,0,0,1-.43-.83c-.1-.84.07-2.34,1.05-2.65.4-.13-.19-2.92-.07-2.53A17.48,17.48,0,0,0,453.26,45.09Z"/><path class="cls-33" d="M426.74,64c-3.5,7.7-2.37,16,.3,23.75,1.92,5.61-7,8-8.87,2.45-3.54-10.31-3.92-20.81.63-30.84,1-2.27,4.3-2.81,6.29-1.65,2.33,1.36,2.68,4,1.65,6.29Z"/><path class="cls-3" d="M419.83,69.24c2.75,5.48,7.7,8.18,13.62,9,8.64,1.12,17.62-.15,26.26-.65,4.11-.23,4.14-6.66,0-6.43-8,.47-16.19,1.5-24.21.87-4.82-.38-8-1.8-10.12-6-1.86-3.7-7.41-.45-5.55,3.24Z"/><path class="cls-24" d="M462.81,79.15l-7.68-4.23a1.26,1.26,0,0,1-.49-1.46l4.9-14.79a.83.83,0,0,1,1.16-.58l7.63,4.08a1.28,1.28,0,0,1,.49,1.47L464,78.36c-.13.37-.3.44-.64.57Z"/><path class="cls-24" d="M461.67,65s-7.21,9-7,8.42l4.84-15.27.64-.16a.74.74,0,0,1,.58.06l7.63,4.08a1.08,1.08,0,0,1,.48.6Z"/><path class="cls-34" d="M462.09,79.16l-7.6-4.08a1.26,1.26,0,0,1-.47-1.47l4.9-14.79a.81.81,0,0,1,1.15-.58l7.6,4.09a1.22,1.22,0,0,1,.46,1.46l-4.89,14.79A.81.81,0,0,1,462.09,79.16Z"/><path class="cls-34" d="M468,64.93l-.28.84c0,.06,0,.09.08.06h0a.26.26,0,0,0,.13-.16l.28-.84c0-.06,0-.09-.06-.06h0A.31.31,0,0,0,468,64.93Z"/><path class="cls-34" d="M467.52,66.41l-.28.84c0,.06,0,.09.08.06h0a.22.22,0,0,0,.13-.15l.28-.84c0-.06,0-.09-.06-.06h0A.31.31,0,0,0,467.52,66.41Z"/><path class="cls-35" d="M462.86,76.73l-7.49-4,4.28-13,7.44,4-4.38,12.73C462.67,76.5,463,76.78,462.86,76.73Z"/><path class="cls-36" d="M464.91,61.87l-2.35-1.26a.2.2,0,0,1-.09-.26h0a.15.15,0,0,1,.21-.11L465,61.5a.25.25,0,0,1,.09.27h0A.14.14,0,0,1,464.91,61.87Z"/><path class="cls-3" d="M440.78,73c.46,5.94,1.3,11.29,4,16.62,2.26,4.41,4.25,10.59,8.79,13.23,3.84,2.24,8,.6,10.35-2.91,3.54-5.27,3.59-12.7,3.36-18.78-.15-4.12-6.58-4.14-6.43,0,.18,4.71.39,10.47-2,14.74a3.94,3.94,0,0,1-1.06,1.39c-.09.09.09-.17-.38.23.34-.29.1-.15-.21,0,.36-.2.37-.09-.14-.05.65,0,.15.05-.15-.1.65.32-.1-.08-.23-.16-.4-.26,0,.1-.46-.37a15.35,15.35,0,0,1-2.79-4.5c-1.12-2.22-2.32-4.4-3.43-6.62-2-4-2.48-8.3-2.83-12.74-.31-4.1-6.74-4.13-6.43,0Z"/><path class="cls-3" d="M459,79.36l.33,3c.21,1.9,2.2,3.41,4.42,3.37h0c2.22,0,3.86-1.61,3.65-3.5l-.33-3a4.25,4.25,0,0,0-4.42-3.37h0C460.47,75.89,458.83,77.46,459,79.36Z"/><path class="cls-3" d="M461.14,79.81h0a1.6,1.6,0,0,1-1.78-1.38l-.53-4.28a1.6,1.6,0,0,1,1.38-1.78h0A1.6,1.6,0,0,1,462,73.76l.53,4.28A1.58,1.58,0,0,1,461.14,79.81Z"/><path class="cls-3" d="M454.88,71.15h0a.8.8,0,0,1-.45-1.05l1.14-2.85a.81.81,0,0,1,1.06-.45h0a.82.82,0,0,1,.45,1l-1.15,2.85A.81.81,0,0,1,454.88,71.15Z"/><path class="cls-22" d="M447.74,118.77c-6.61,12.56-14.48,11.58-22.23,5.86s-8.52-17-4.41-26.47c0,0,11.56-13.46,19.31-7.74S455.43,104.18,447.74,118.77Z"/><path class="cls-37" d="M419,68.45s3.43,27.31,4,29.6c0,0,2.78,7.9,22.47.44L450.9,74.1Z"/><path class="cls-37" d="M450.65,83.33c.75-.46,1.84-7,1.84-7-.41-7.75-4.49-6.71-9.4-14.43-.78-1.24-6.51-4.61-14.57-6.07A8.6,8.6,0,0,0,419.16,61c-.92,2.13,0,8.49,0,8.49,2.42,11.67,3,7.23,3.77,13.21.47,3.73.8,6.43.83,6.81v0l14,11,7.36-13.29h0Z"/><path class="cls-16" d="M420.85,97.9h0a1.63,1.63,0,0,0,.6,1.58,18.71,18.71,0,0,0,13.69,3.44c6.25-.67,9.91-2,11.67-2.9a1.63,1.63,0,0,0,.83-2l-.17-.49a1.63,1.63,0,0,0-2.16-.94c-3.31,1.39-11.18,4.25-16.7,2.59a18.46,18.46,0,0,1-5.24-2.3A1.62,1.62,0,0,0,420.85,97.9Z"/><path class="cls-3" d="M430.43,58.14l2.8-12.49,7.62,5.13-2.19,9.75C438.44,62.37,429.88,62.39,430.43,58.14Z"/><path class="cls-38" d="M429.56,51.67s-8.48-4.11-6.46-16.4C425.29,22,433.91,24.2,440.82,24.2c3.06,0,8.43,2.6,9.76,5.53,1.57,3.46,1.26,5.59-2.82,5.57-1.62,0-1.3,4.38-1.77,5.84-.83,2.58-5.86,2-6.72,4.51s-1.46,7.52-3.81,7.56C431.28,53.29,429.56,51.67,429.56,51.67Z"/><path class="cls-3" d="M443.42,44c0,2.14-1.28,3.85-2.81,3.84a2,2,0,0,1-.49-.07c-1.29-.33-2.26-1.92-2.24-3.82,0-2.14,1.28-3.86,2.81-3.84S443.44,41.87,443.42,44Z"/><path class="cls-16" d="M430,56.05a5.68,5.68,0,0,0,4.32,4.19c2.31.46,5-.22,7.37-.45,1.47-.15,1.46,2.15,0,2.3-3,.3-6.38,1.15-9.25,0a8.07,8.07,0,0,1-4.66-5.39,1.15,1.15,0,0,1,2.22-.61Z"/><path class="cls-38" d="M442.49,33.66c.85,4.15,1.59,9-.25,13-2,4.31-1.64,5,.08,9.38.53,1.36,2.75.77,2.21-.61a27.08,27.08,0,0,0-1.27-2.65c-.31-1.75.41-3.41,1-5a18,18,0,0,0,1.27-4.07,33.83,33.83,0,0,0-.78-10.7c-.3-1.44-2.52-.83-2.22.61Z"/><path class="cls-39" d="M448.6,68.7A65.25,65.25,0,0,0,452,84c.48,1.28.94,2.25,1.82,4.07s1.8,3.63,2.64,5.48c1,2.26.65,5-1.65,6.29-2,1.16-5.26.63-6.29-1.65-1.79-3.92-3.86-7.71-5.39-11.75-2.14-5.66-3-11.71-3.73-17.69-.3-2.47,2.33-4.6,4.6-4.6,2.74,0,4.29,2.12,4.6,4.6Z"/><path class="cls-16" d="M431.64,30.21A4.42,4.42,0,1,1,427.22,26,4.33,4.33,0,0,1,431.64,30.21Z"/><path class="cls-38" d="M421.83,26.51a4.14,4.14,0,0,1,4.8,3.21,25.19,25.19,0,0,1-2.25,16.63c-5.19,10.58,3.83,25.28-.77,31.8A54.72,54.72,0,0,0,419,67.38c-3.49-6.53-4.56-17.77-3.84-25.45a40.6,40.6,0,0,1,4.52-14.35A3.67,3.67,0,0,1,421.83,26.51Z"/><ellipse class="cls-2" cx="775.97" cy="594.71" rx="39.78" ry="22.97"/><path class="cls-22" d="M758.33,597.87c-.32-.18-5.05-2.22-8.32-2.22-1.61,0-13.3,7.17-14,8.16-1.51,2.23.7,4.68.7,4.68h0c.53,1,1.74,1.8,4.38,1.56l19.43-5.13v-6.54A13.49,13.49,0,0,1,758.33,597.87Z"/><path class="cls-22" d="M765.88,597.55c.38,0,5.5.48,8.36,2.05,1.41.78,8.21,12.7,8.32,13.89.25,2.68-2.87,3.76-2.87,3.76h0c-.94.62-2.39.74-4.59-.74l-14.55-13.85,3.15-5.74A13.7,13.7,0,0,0,765.88,597.55Z"/><path class="cls-22" d="M770.76,567S751,555.61,744,556.39s-8.59,3.79-9.21,5.73,28.86,27.18,44.09,27l5.76,1.68s35.24,2.39,32.49-2.74-10.54-11-15.4-13.64S770.76,567,770.76,567Z"/><path class="cls-40" d="M735.88,562.22s7.8-7.26,21.79,15,15.4,25,15.4,25l-14.34-2.84S728.8,567.53,735.88,562.22Z"/><path class="cls-3" d="M761.18,525.87c.41,10.09,3.38,19.76-1.8,29.25-.82,1.5-.92,2.22-2.29,1.9s-2.63-3-3.23-4a21.52,21.52,0,0,1-3.08-11.68c.3-5.05-7.55-5-7.85,0-.47,8.08,6.38,28,17.8,23.25,6-2.5,8.42-11.63,9.37-17.39,1.16-7-.78-14.26-1.07-21.31-.2-5-8-5.06-7.85,0Z"/><path class="cls-10" d="M770.77,513.7s-7.56-1.3-9.56,8.73a68.41,68.41,0,0,0-1.58,11.93,2.47,2.47,0,0,0,1.3,2.21l8.78,4.75Z"/><path class="cls-10" d="M766.28,519c-1.85,2.91-1.45,4.56-1,8.25a8.3,8.3,0,0,0,6.76,7.16l36.52,6.67s.77-13.89-6.64-17.35c-4-1.87-10.19-4.88-15-7.25C779.71,513,770.55,512.29,766.28,519Z"/><path class="cls-10" d="M765.65,529.41c0,.47-.95,10,0,16.29a131.8,131.8,0,0,1,1.18,14.4c0,.71-2.25,3.19-2.6,5,0,0,5.67,12.16,9.8,13.22s14.58-2.77,23.2-4.42,6.55-29,6.55-29l-10.16-19Z"/><path class="cls-10" d="M774,578.28c4.13,1.06,14.58-2.77,23.2-4.42s6.55-29,6.55-29l-5.22-9.76a1.84,1.84,0,0,0-3.46,1C797,555.46,792.89,571.21,774,578.28Z"/><path class="cls-3" d="M795.11,533.8c4.83,11.81,9,22,7.74,35.08-.38,4.09-1.41,7.14-4.53,9.84-3.43,3-7.09,5.48-10.28,8.75-3.53,3.62,2,9.18,5.55,5.55,7-7.23,15.29-10.65,16.82-21.58a60.62,60.62,0,0,0-.59-20.33c-1.38-6.75-4.55-13.06-7.14-19.4-1.89-4.61-9.48-2.59-7.57,2.09Z"/><path class="cls-10" d="M797.8,521.76s9.33,3.66,11.69,10.16a105.5,105.5,0,0,1,3.34,12.46,5.52,5.52,0,0,1-3.94,6.48l-4.2,1.15a5.51,5.51,0,0,1-6.71-3.67l-6-18.9S796.62,526.6,797.8,521.76Z"/><path class="cls-24" d="M758.43,550.29l-9-4.17a2.43,2.43,0,0,1-1.23-1.77L745,524.56c-.13-.75.23-1.19.79-1l9.35,3.63A2.43,2.43,0,0,1,756.4,529l3.2,19.69a.76.76,0,0,1-.29.86Z"/><path class="cls-24" d="M750.41,532.22s-2,12.89-2.17,12.13L744.72,524l.52-.33a.55.55,0,0,1,.58,0l9.35,3.63a1.86,1.86,0,0,1,.76.66Z"/><path class="cls-34" d="M757.82,550.38l-9.33-3.64a2.41,2.41,0,0,1-1.21-1.77l-3.22-19.79c-.12-.75.23-1.19.79-1l9.32,3.64a2.41,2.41,0,0,1,1.21,1.77l3.21,19.79C758.72,550.16,758.38,550.59,757.82,550.38Z"/><path class="cls-34" d="M756.09,531.07l.18,1.13c0,.08.07.11.11.06h0a.22.22,0,0,0,0-.21l-.18-1.14c0-.07,0-.11-.08-.06h0A.26.26,0,0,0,756.09,531.07Z"/><path class="cls-34" d="M756.41,533.05l.19,1.13c0,.08.06.11.1.06h0s0-.14,0-.22l-.18-1.13c0-.08,0-.11-.08-.06h0A.26.26,0,0,0,756.41,533.05Z"/><path class="cls-3" d="M746.62,545.49h0a3.85,3.85,0,0,1-4.62-2.85l-1.22-5.15a3.85,3.85,0,0,1,2.85-4.62h0a3.86,3.86,0,0,1,4.62,2.85l1.22,5.15A3.85,3.85,0,0,1,746.62,545.49Z"/><path class="cls-16" d="M780,515.45c.33.07,8.07,0,13.79,4.37,0,0-.64,10.4-9,8S780,515.45,780,515.45Z"/><path class="cls-3" d="M781.45,521.62l-6.31-14.32,10.68,1.29,4.79,10.89C792,522.6,785.58,528.78,781.45,521.62Z"/><path class="cls-29" d="M780,517.47s4-2.56,4-2.6-1.16,3.21-3.15,4.61Z"/><rect class="cls-3" x="766.32" y="487.76" width="19.46" height="31.5" rx="8.25" ry="8.25" transform="translate(-79 150.42) rotate(-10.54)"/><path class="cls-38" d="M777.07,498.67c-2.83,1.9-6.49,3.27-10.07,2.48-3.88-.86-3.68-6.63-1.21-9.74,1.34-1.68,1.55-2.58,4.66-4.43,8.82-5.24,19.74-2,21.73,8.71,0,0,2.5,11.79-3,16.68a1.92,1.92,0,0,1-3-.71h0s2.42-4.85-3.31-7.23c-1.32-.54-1.85-2.19-2-4A2.43,2.43,0,0,0,777.07,498.67Z"/><path class="cls-3" d="M788.68,509.17a2,2,0,0,1-3.47-.33,4.77,4.77,0,0,1,.67-5,2,2,0,0,1,3.47.34A4.75,4.75,0,0,1,788.68,509.17Z"/><path class="cls-38" d="M768.66,490.78s-4.59-1.07-5.18,8.64c-.23,3.72-.32,5.94-.35,7.25a1,1,0,0,0,1.64.88c3.18-2.2,10-7.6,8.2-12.67C771.38,490.24,768.66,490.78,768.66,490.78Z"/><path class="cls-38" d="M779.27,497.49a90.29,90.29,0,0,1,1.37,9.34.35.35,0,0,0,.67.15c1.15-2.23,3.17-6.62,2.6-9C783.14,494.73,779.27,497.49,779.27,497.49Z"/><path class="cls-38" d="M781.78,500.51a91.23,91.23,0,0,1,1.36,9.34.35.35,0,0,0,.67.15c1.16-2.23,3.18-6.62,2.61-9C785.64,497.75,781.78,500.51,781.78,500.51Z"/><path class="cls-40" d="M816.51,587s-3.53-7.15-17-2.47c-15.5,5.38-42.1,11.55-42.1,11.55s-1.34,8.4.9,9.93c8.14.28,52.28-4.32,58.2-13.34A5.17,5.17,0,0,0,816.51,587Z"/><path class="cls-22" d="M421.86,120.86s12.65,21.94,44.25,0l7.09-5c-1.63-4.67-1.88-17-23.19-11.27C436.7,108.13,421.86,120.86,421.86,120.86Z"/><path class="cls-41" d="M535.14,593a8,8,0,0,0-11.63-3.37l-.15.1h0l-8.06,4.79a5.33,5.33,0,0,0-.92.47l-.16.09h0l-3,1.76h0l-86.44,51.37a2.39,2.39,0,0,0-.73.33l-6.74,11h0l-6.43,9.26,12.68-2.84h0l9.87-1.91a4.19,4.19,0,0,0,.74-1.21l.26.37,80.8-47.95a6.74,6.74,0,0,1-1,.8,1.29,1.29,0,0,1-.16.09h0l4-2.31h0l.15-.08a10,10,0,0,0,1-.68l2.81-1.62h0l.16-.08a6.72,6.72,0,0,0,1.57-1.36L531,605.7h0l.16-.09A10.05,10.05,0,0,0,535.14,593Z"/><path class="cls-42" d="M522.34,586.64l-.16.09h0l-15.5,9.19a10.06,10.06,0,0,0-4,12.66A8,8,0,0,0,514.29,612l15.5-9.19h0l.15-.09A10,10,0,0,0,534,590,8,8,0,0,0,522.34,586.64Z"/><polygon class="cls-22" points="522 607.58 433.29 660.22 427.41 652 521.48 595.98 522 607.58"/><path class="cls-40" d="M427.41,652c-1.26-4.27-4.05-1-3.88-6.73l88.25-52.45c6.66-1.82,9.25-.19,10.07,2.94Z"/><path class="cls-23" d="M513.2,592l-.15.09h0l-3,1.76a8.13,8.13,0,0,1,10.87,4A10.15,10.15,0,0,1,517,610.69l-.16.08h0l4-2.31h0l.15-.08C529,603.47,521.21,587,513.2,592Z"/><path class="cls-23" d="M521,597.92c-2.16-4.53-5.76-7.15-10.08-4.59l-1.81,1.13h0l-3,1.76c5.67-3.05,14.86,11.68,7,16.86l-.15.08h0l4-2.31h0l.16-.08A10.15,10.15,0,0,0,521,597.92Z"/><path class="cls-23" d="M422.92,645.53l-12.05,19.69,21.42-4.16C436.73,656.08,427.32,642.49,422.92,645.53Z"/><path class="cls-40" d="M409.74,665.81l6.44-9.26s.92-1,2.24.86,1.91.3,3.12,2.55.89,3,.89,3Z"/><path class="cls-3" d="M76.86,376.51c-1.45,9.32-4.83,16.13-9.47,24.16-1.53,2.64-3.18,5-2.67,8.06.7,4.21,2,8.22,2.5,12.52.52,4.72-6.86,4.68-7.38,0-.84-7.69-4.35-13.48-.69-20.9,1.92-3.89,4.49-7.41,6.5-11.26,2.37-4.54,3.31-9.53,4.09-14.55.73-4.68,7.85-2.69,7.12,2Z"/><path class="cls-43" d="M78.66,376.69c-3,8.57-7,16.6-10.38,25-2.32,5.81-11.84,3.28-9.49-2.62,3.35-8.41,7.37-16.44,10.38-25,2.09-5.94,11.6-3.38,9.49,2.61Z"/><path class="cls-3" d="M81.34,429.9c-8.28,3.73-18.47,10.73-22.71,19.05-2.47,4.86-2.1,9.84-1.82,15l1.47,27.37c.35,6.7-10.06,6.68-10.42,0q-.81-15-1.61-29.93c-.37-6.95.68-13.81,4.56-19.76,5.72-8.76,15.82-16.51,25.27-20.77,6.07-2.73,11.37,6.24,5.26,9Z"/><path class="cls-3" d="M17.93,468.41c7.54-8.2,12.91-17.8,21.37-25.25,5.24-4.62,10.92-7.17,17.76-5.18,8.24,2.4,15,2.84,22.52-2.18,5.58-3.74,10.8,5.28,5.26,9a31.36,31.36,0,0,1-23.15,5.09c-2.82-.47-5.45-1.46-8.21-2.11-1.14-.27-1-.32-1.65-.24-2.47.33-4.68,2.5-6.39,4.09-7.8,7.26-13,16.37-20.15,24.15-4.55,4.94-11.9-2.44-7.36-7.37Z"/><path class="cls-44" d="M19.36,482.34l-.32-.66a.77.77,0,0,1,.36-1h0a.75.75,0,0,1,1,.35l.32.67a.77.77,0,0,1-.35,1h0A.78.78,0,0,1,19.36,482.34Z"/><path class="cls-45" d="M19.13,480.87l2.06-2.79a.77.77,0,0,1,1.07-.16h0a.77.77,0,0,1,.16,1.07l-2.06,2.79a.78.78,0,0,1-1.07.16h0A.77.77,0,0,1,19.13,480.87Z"/><path class="cls-22" d="M29.4,472.24c.29-1.82-.44-4.57-1.61-5l-5.57,2.19-.46-.16c-2.71.76-15.44,3.07-19.39,4.37-2,.66-.36,3.18-.36,3.18,4.16,4.48,10.57,5.86,10.57,5.86,3.11.12,3.19-2.81,7.57-4.31.74-.26,2-.17,1.75.42l-2.61,3.16,1.3.63s4.17-4.19,7.14-6.89A4.32,4.32,0,0,0,29.4,472.24Z"/><path class="cls-3" d="M27.4,466.4l-3.45.18S12.36,471,10.1,471.92C7.48,473,12,481.58,25.38,473.71,33.4,470.28,27.4,466.4,27.4,466.4Z"/><path class="cls-46" d="M68.75,413.91C50.89,425.24,40,435.6,40.67,440.46c0,0,8.89-4.93,15.87-.88s5.41,7.45,3.64,9.3c-.55.58,3.07,4.43,3.87,4.46,8.28.25,33.9-2.78,34.4-18.39.43-13.23-1.38-14.81-1.38-14.81S78.46,426.59,68.75,413.91Z"/><path class="cls-47" d="M73.94,376.7s-6.81,9.46-6.44,15.42c.24,3.8,2.72,8.19,3,9.42,2.69,10.06.72,12.95.91,15.7,0,0,1.63,9.52,25.32,2l10.48-27.75Z"/><path class="cls-47" d="M104.71,398c.21-.35,2.45-3.88,2.54-4.29,1-4.69,3.79-8.27-1.22-14.49-1-1.29-12.59-8.44-21.62-10.61a9.74,9.74,0,0,0-10.91,5.17A50.48,50.48,0,0,0,71,380.84c-1,9.34,3.88-2.72,4.24,2.49,0-.13,0-.26,0-.38s.63,8.8,1.1,15.61c.28,4.25.48,7.32.49,7.75,0,0,0,.05,0,.06l15.11,13.38,9.19-14.55h0Z"/><path class="cls-3" d="M85,368.5s-8.38,7.71-1.85,13.89,19-6.08,19-6.08C96.18,372.12,90.43,369.17,85,368.5Z"/><path class="cls-47" d="M107.25,393.7c-1,.43-3.86,4.24-6.09,6.21-4.34,3.84-10.62,6-16.16,4.38a90.5,90.5,0,0,1-16.25-7.11s1.68,10.14,0,16.73c-1.11,4.39,8.16,7.71,8.16,7.71,10.26,3.84,20.16-1.48,20.16-1.48l7.61-20.33Z"/><path class="cls-46" d="M82.67,368.15c-2,4.28-5,11.38-.38,14.7,6.5,4.61,14.37-.54,19.42-4.91,1.27-1.09-.58-2.93-1.84-1.84-3.65,3.15-10,7.71-14.87,5.26-3.51-1.75-2.52-3.77-1.71-6.79a31.64,31.64,0,0,1,1.63-5.11c.7-1.51-1.55-2.83-2.25-1.31Z"/><path class="cls-44" d="M57.15,501.71l-.66-.34a.76.76,0,0,1-.32-1h0a.76.76,0,0,1,1-.33l.65.34a.78.78,0,0,1,.33,1h0A.76.76,0,0,1,57.15,501.71Z"/><path class="cls-45" d="M56.07,500.66V497.2a.77.77,0,0,1,.77-.77h0a.76.76,0,0,1,.76.77v3.46a.77.77,0,0,1-.76.77h0A.78.78,0,0,1,56.07,500.66Z"/><path class="cls-22" d="M59.19,487.62c-.85-1.64-3.08-3.41-4.28-3.07l-3.16,5.08-.48.15c-1.72,2.22-10.57,11.66-13,15.05-1.22,1.73,1.61,2.78,1.61,2.78,6,1.12,12-1.6,12-1.6,2.57-1.75.89-4.15,3.52-8,.44-.65,1.48-1.31,1.65-.7l-.22,4.09,1.42-.27s.86-5.85,1.63-9.78A4.34,4.34,0,0,0,59.19,487.62Z"/><path class="cls-3" d="M54.1,484.12l-2.66,2.2s-6.68,10.45-7.94,12.54c-1.47,2.42,7.31,6.6,13.34-7.67C61.24,483.66,54.1,484.12,54.1,484.12Z"/><path class="cls-22" d="M71.07,353.37c-1,3-1.33,6.55.6,9,.36.46.77.86,1.17,1.28a19,19,0,0,1,2.7,3.65,1.73,1.73,0,0,0,.46.61,1.31,1.31,0,0,0,1.63-.3,9.1,9.1,0,0,0,1-1.51c1-1.49,21.41,10.41,22.41,8.93,1.37-2-3.66-24.59-4.19-26.95-.67-3-15.6,1-18-.9a13,13,0,0,1-1.43-1.11h0c-.62-.61-1.19-1.93-2.22-1.48-.82.35-1.1,1.84-1.39,2.57C72.91,349.27,71.82,351.25,71.07,353.37Z"/><path class="cls-3" d="M86.13,373.77,82,357.88,92,361l3.34,13C96,376.12,89.11,381.88,86.13,373.77Z"/><path class="cls-29" d="M85.13,369.59s4.47-2.29,4.49-2.33-1.53,3.25-3.75,4.52Z"/><rect class="cls-3" x="75.2" y="339.71" width="17.72" height="28.69" rx="7.52" ry="7.52" transform="translate(-11.77 3) rotate(-1.91)"/><path class="cls-22" d="M87.83,350.93c-3.12-3.85-8.88.74-12-.46-3.38-1.31-2.23-4.78.06-7.58a12.74,12.74,0,0,1,5.92-3.95c8.74-3.31,17.51.39,17.84,10.28,0,0,1.14,13.44-6.75,15.44l-.85-1.89s4.53-5-.3-7.92c-1.13-.68-1.18-.7-1.08-2.35S88.88,352.22,87.83,350.93Z"/><path class="cls-3" d="M94.78,363a2.08,2.08,0,0,1-3.55-.89A5,5,0,0,1,92.71,357a2.07,2.07,0,0,1,3.55.89A5,5,0,0,1,94.78,363Z"/><path class="cls-22" d="M73.71,358.29s.13-4.54,11-10.48.5-.27.5-.27L74.43,345.1S70.17,349.94,73.71,358.29Z"/><path class="cls-3" d="M110.81,389.78a106.28,106.28,0,0,1,.77,18.35c-.11,5.71,1.53,12.36-.12,18-1.07,3.63-4,5.23-7.56,5.65-6.06.73-12.19.43-18.26,1.2-4.7.6-4.66-6.79,0-7.38,5.23-.66,10.41-.78,15.67-1,2.69-.12,3,.43,3.26-1.8.6-5.29-.54-10.82-.33-16.16a76.88,76.88,0,0,0-.55-14.85c-.69-4.64,6.42-6.65,7.12-2Z"/><path class="cls-16" d="M109.67,383.87c4.51,11.61,3.38,22.65,3.08,34.8-.16,6.32-10,6.35-9.84,0,.28-11.29,1.46-21.4-2.73-32.18-2.29-5.91,7.22-8.47,9.49-2.62Z"/><path class="cls-3" d="M64.94,428.29h0a4.28,4.28,0,0,1-4.88-3.53L58.6,415.7a4.28,4.28,0,0,1,3.53-4.88h0A4.26,4.26,0,0,1,67,414.34l1.46,9.07A4.26,4.26,0,0,1,64.94,428.29Z"/><path class="cls-21" d="M88.29,434.23v-.83l-1.06.41-.23-.52-26.6-15.36a1.41,1.41,0,0,0-1.26.05l-11.45,6.61v-.18l-2.12.85v.88h0a.38.38,0,0,0,.2.22l27.68,16a1.44,1.44,0,0,0,1.26-.05L88,434.64a.51.51,0,0,0,.31-.41Z"/><path class="cls-23" d="M73.45,441.48l-27.69-16c-.32-.18-.28-.51.09-.72l13.27-7.66a1.35,1.35,0,0,1,1.25-.05l27.69,16c.32.18.28.51-.09.72L74.7,441.42A1.39,1.39,0,0,1,73.45,441.48Z"/><path class="cls-21" d="M75.34,431.18l-6.7-3.87c-.08,0-.07-.12,0-.17l3.21-1.86a.35.35,0,0,1,.3,0l6.7,3.87c.08,0,.07.12,0,.17l-3.21,1.86A.32.32,0,0,1,75.34,431.18Z"/><path class="cls-16" d="M72.74,423.49a3,3,0,0,0-1.27-1.93L44,405.94a.68.68,0,0,0-.61-.1h0a.58.58,0,0,0-.15.11l-.91,1,.83-.07,2.61,16.89A3,3,0,0,0,47,425.65l26,14.77.84.95.1.23c.53.11,1.79-.78,1.79-.78Z"/><path class="cls-22" d="M73.54,442.29,46.05,426.67a3,3,0,0,1-1.27-1.92l-2.64-17.08c-.12-.73.27-1.05.86-.71l27.49,15.62a3.06,3.06,0,0,1,1.28,1.93l2.64,17.07C74.52,442.31,74.13,442.63,73.54,442.29Z"/><path class="cls-3" d="M75.31,432.59h0A4.26,4.26,0,0,1,78,427.22l7.69-2.52a4.26,4.26,0,0,1,5.37,2.71h0a4.26,4.26,0,0,1-2.72,5.37l-7.69,2.53A4.28,4.28,0,0,1,75.31,432.59Z"/><path class="cls-16" d="M58.93,425.76c.14.91-.68,1.11-1.83.45a4.88,4.88,0,0,1-2.35-2.83c-.14-.9.68-1.11,1.84-.45A4.93,4.93,0,0,1,58.93,425.76Z"/><path class="cls-22" d="M87.37,350.44s8.74,11.44,8,18.92c-.65,6.19-7.37,10.13-8.57,19.48a2,2,0,0,0,3.47,1.42,27.21,27.21,0,0,1,5.89-5.71c5.83-4,6.89-8.23,6.34-11.34s-3-25.82-3-25.82l-13.4-1.34Z"/><path class="cls-2" d="M568.15,422.65c-11.15,6.44-29.29,6.41-40.51-.07s-11.28-16.95-.13-23.39,29.29-6.41,40.51.07S579.3,416.21,568.15,422.65Z"/><path class="cls-22" d="M540.39,397.87l-12.27,2.51-1.65,4.25c-.4,3.06-.38,4.68,1.65,6.29,1.7,1.35,5.17.31,7-.54l7.88-4.74c5.84-3.21,5.4-5.6,4.77-7.57h0C546.82,395.87,544.12,396.38,540.39,397.87Z"/><path class="cls-22" d="M566.44,413l-11.86-4L551,411.82c-1.88,2.43-2.68,3.85-1.74,6.26.79,2,4.32,2.87,6.31,3.05l9.19-.13c6.67.16,7.49-2.12,7.93-4.14h0C573,414.48,570.41,413.57,566.44,413Z"/><path class="cls-3" d="M524.56,261c-6.69,10.15-9.64,23.09-12.29,34.79a11.51,11.51,0,0,0-.11,6.5c2.23,8.23,4.76,15.92,5.72,24.5.49,4.32,7.33,4.37,6.84,0a114.42,114.42,0,0,0-5-23.44c-.48-1.43-1-2.85-1.55-4.26.5,1.29-.17,2.25.09,1.09.17-.72.32-1.44.48-2.17,2.52-11.27,5.25-23.8,11.69-33.55,2.43-3.69-3.49-7.12-5.91-3.46Z"/><path class="cls-43" d="M522.63,263.64c-4.52,7.89-7.8,21.21-10.78,32-1.13,3-.42,5.68,1.47,5.56l6.29.87c1.56-.1,4.51-3.46,5.24-5.95l8-27.44c1.3-4.46.34-8.3-2.22-8.88l-.58-.08C529.59,258.07,526,258.05,522.63,263.64Z"/><path class="cls-48" d="M543.78,313.62l-31.59,18.24a2.32,2.32,0,0,1-3.48-2v-22a2.31,2.31,0,0,1,1.16-2l31.59-18.24a2.32,2.32,0,0,1,3.48,2v22A2.32,2.32,0,0,1,543.78,313.62Z"/><path class="cls-16" d="M531.88,307.41a8.86,8.86,0,0,1-4,6.94c-2.22,1.28-4,.25-4-2.3a8.86,8.86,0,0,1,4-6.94C530.08,303.83,531.88,304.86,531.88,307.41Z"/><path class="cls-3" d="M526.69,327.8l-2.3,1a3.53,3.53,0,0,1-4.66-1.75h0a3.54,3.54,0,0,1,1.76-4.67l2.29-1a3.54,3.54,0,0,1,4.67,1.76h0A3.54,3.54,0,0,1,526.69,327.8Z"/><path class="cls-49" d="M553.32,238.82l0,1.29s.17,3.9-3.66,1.88-3.72-6.87-3.72-6.87S548.9,234.78,553.32,238.82Z"/><path class="cls-50" d="M549.68,242.11c5,2.59,4.82-2,4.82-2l0,0-.15-1.55c-5.57-4.79-9.12-4.56-9.12-4.56A8.41,8.41,0,0,0,549.68,242.11Zm-3.49-6.81s2.84-.15,7.11,3.57l0,1.12s.13,3.37-3.59,1.44A7,7,0,0,1,546.19,235.3Z"/><polygon class="cls-50" points="556.37 241.03 553.4 239.67 553.24 237.99 556.21 239.35 556.37 241.03"/><path class="cls-50" d="M545.51,235.36l-.52-.24a1.19,1.19,0,0,1-.59-.89h0c0-.37.17-.55.46-.42l.53.24a1.21,1.21,0,0,1,.58.89h0C546,235.31,545.8,235.49,545.51,235.36Z"/><path class="cls-50" d="M564.74,244.13l-.53-.24a1.16,1.16,0,0,1-.58-.89h0c0-.36.17-.55.45-.42l.53.24a1.16,1.16,0,0,1,.58.89h0C565.23,244.08,565,244.26,564.74,244.13Z"/><path class="cls-22" d="M564.31,242.76a15.19,15.19,0,0,0-9-3.73l.15,1.55,0,0a9.16,9.16,0,0,0,5.65,6.72C566.05,249.26,564.31,242.76,564.31,242.76Zm-3.41,3.76a6.85,6.85,0,0,1-4.21-5l-.18-1.19a11.86,11.86,0,0,1,7,2.9S564.57,248,560.9,246.52Z"/><path class="cls-22" d="M557.38,242.38h0c-.12-.15-.16-.34-.09-.42l.89-1c.08-.09.24,0,.36.11h0c.13.15.17.34.09.42l-.89,1C557.67,242.58,557.5,242.52,557.38,242.38Z"/><path class="cls-30" d="M546.75,237.32h0c-.12-.15-.16-.34-.08-.42l.88-1c.08-.09.24,0,.37.11h0c.12.15.16.34.08.42l-.89,1C547,237.52,546.88,237.46,546.75,237.32Z"/><path class="cls-22" d="M545.63,338c4.54,13.34,5,27.68,4.54,41.65-.32,10.4-2,20.89-1.71,31.3.18,6.83,10.8,6.85,10.63,0-.27-10.69,1.44-21.47,1.73-32.17.39-14.55-.21-29.71-5-43.6-2.19-6.44-12.46-3.68-10.24,2.82Z"/><path class="cls-22" d="M524.25,326c2.39,8.66,3.46,17.6,4.33,26.52.51,5.27,1.14,10.3.58,15.55-1.11,10.58-3.09,21.36-3,32,.05,6.83,10.67,6.85,10.62,0-.07-10.82,2-21.75,3.07-32.49.56-5.41-.2-10.7-.73-16.1-.94-9.51-2.07-19.1-4.61-28.33-1.81-6.58-12.07-3.78-10.25,2.83Z"/><path class="cls-22" d="M533,340.05h0c1,1.1-3.24-4.25-2-3.49,2.62,1.59,17.38,11.61,20.45,11.66,3.7.06,1.54-3.52,4.3-6s3.24-6.17,3.49-9.68a4.62,4.62,0,0,0-2.39-5.15c-6.55-5-19.44-17.24-28.6-13.31C517.66,318.61,528.26,334.78,533,340.05Z"/><path class="cls-47" d="M525.27,261.54c-1.94,2.5-1.71,4-1.62,7.46a7.63,7.63,0,0,0,5.57,7.13l32.85,9.21s1.89-12.64-4.59-16.44c-3.49-2-8.9-5.33-13.16-7.92C538.08,257.18,529.75,255.76,525.27,261.54Z"/><path class="cls-3" d="M540.25,261.11,543,248.72l7.55,5.09-2.27,11.27C548.08,266.91,539.7,265.31,540.25,261.11Z"/><path class="cls-3" d="M544.83,230.67s-7.57-5.27-7.64,7.54a22.36,22.36,0,0,0,12.68,20.13c4.55,2.16,10.12-.61,10.37-5,1.08-6.48,1.1-12.53-1-17.74.31-5.36-3.38-3.45-9.74-3.8Z"/><path class="cls-51" d="M540.5,255.54s-8.76-3.25-7.92-15.57c.9-13.33,13.16-12.18,20-12.84,3-.29,5.11-.72,8.2,2,2.82,2.51.18,8.15-3.85,8.51-1.59.14-.86,4.45-1.19,5.93-.57,2.62-2.21,3.91-2.81,6.45s-4.13,6.19-6.44,6.46C542.36,257,540.5,255.54,540.5,255.54Z"/><path class="cls-47" d="M523.54,320.91c-2.1-.8-1.59-36.75.28-56.6l37,17.6c-.18,16.89-2.32,30.23-.29,50.82Z"/><path class="cls-47" d="M548.17,336.41c-9.14-3.34-17.84-7-22.95-13.25-2.51-1.45-2.2-4,.7-5.68h0c2.9-1.68,7.33-1.86,9.84-.41l23,13.25c2.51,1.45,2.2,4-.7,5.68h0C555.11,337.67,550.68,337.86,548.17,336.41Z"/><path class="cls-47" d="M560.8,281.91l-6.09-2.9c-.25,16.47-2.27,29.7-.28,49.92l-.1,0c0,1.14-.77,2.36-2.4,3.3h0c-2.9,1.67-7.33,1.86-9.84.41a105.44,105.44,0,0,1-12.5-5.28c5,3.87,11.69,6.56,18.58,9.08,2.51,1.45,6.94,1.26,9.84-.41h0c1.62-.94,2.44-2.16,2.39-3.3l.11,0C558.48,312.14,560.62,298.8,560.8,281.91Z"/><path class="cls-22" d="M564.53,244.54l-11.3,1.08a.74.74,0,0,1-.8-.66h0a.74.74,0,0,1,.66-.8l11.3-1.08a.74.74,0,0,1,.81.66h0A.75.75,0,0,1,564.53,244.54Z"/><path class="cls-52" d="M553.2,266.35c-8.48-1.28-14.21,4.06-16.23-8.16h0a2.7,2.7,0,0,1,3.66.8c1.45,2.1,4.55,3.43,8,3a2.7,2.7,0,0,1,2.59,1.22Z"/><path class="cls-3" d="M554.6,277.4c.58,7.07,1.7,13.54,4.66,20,2.12,4.66,4.31,11.33,8.91,14.27,10.38,6.63,21.45-10.36,26.36-16.82,2.65-3.51-3.28-6.92-5.91-3.45-2.78,3.66-13,19.71-18.33,12.78-5.64-7.38-8.12-17.78-8.85-26.8-.36-4.35-7.2-4.39-6.84,0Z"/><path class="cls-16" d="M551.16,277.32c2.07,17.48,7.58,28.6,15.22,34.26,4,2.22,7.78-4.12,6.24-7.94-7.6-6.76-10.27-17.31-11-29.35a5.5,5.5,0,0,0-6.53-3.05h0A5.16,5.16,0,0,0,551.16,277.32Z"/><rect class="cls-3" x="585.61" y="285.7" width="9.85" height="13.89" rx="4.29" ry="4.29" transform="translate(868.1 890.42) rotate(-141.27)"/><path class="cls-51" d="M548.57,251.16c-.42.31-1.36,9.22,6.14,7.78s6-8.94,6-8.94-6,1.54-7.6-5.84S548.57,251.16,548.57,251.16Z"/><path class="cls-3" d="M555,247.47c.18,2.11-.9,3.93-2.41,4.06a2.68,2.68,0,0,1-.49,0c-1.3-.21-2.41-1.69-2.57-3.57-.18-2.11.9-3.92,2.41-4.05S554.78,245.36,555,247.47Z"/></g></g></svg>